%TF.GenerationSoftware,KiCad,Pcbnew,10.0.1*%
%TF.CreationDate,2026-05-10T18:07:13-04:00*%
%TF.ProjectId,Powerbank,506f7765-7262-4616-9e6b-2e6b69636164,rev?*%
%TF.SameCoordinates,Original*%
%TF.FileFunction,Soldermask,Top*%
%TF.FilePolarity,Negative*%
%FSLAX46Y46*%
G04 Gerber Fmt 4.6, Leading zero omitted, Abs format (unit mm)*
G04 Created by KiCad (PCBNEW 10.0.1) date 2026-05-10 18:07:13*
%MOMM*%
%LPD*%
G01*
G04 APERTURE LIST*
G04 Aperture macros list*
%AMRoundRect*
0 Rectangle with rounded corners*
0 $1 Rounding radius*
0 $2 $3 $4 $5 $6 $7 $8 $9 X,Y pos of 4 corners*
0 Add a 4 corners polygon primitive as box body*
4,1,4,$2,$3,$4,$5,$6,$7,$8,$9,$2,$3,0*
0 Add four circle primitives for the rounded corners*
1,1,$1+$1,$2,$3*
1,1,$1+$1,$4,$5*
1,1,$1+$1,$6,$7*
1,1,$1+$1,$8,$9*
0 Add four rect primitives between the rounded corners*
20,1,$1+$1,$2,$3,$4,$5,0*
20,1,$1+$1,$4,$5,$6,$7,0*
20,1,$1+$1,$6,$7,$8,$9,0*
20,1,$1+$1,$8,$9,$2,$3,0*%
G04 Aperture macros list end*
%ADD10RoundRect,0.243750X-0.243750X-0.456250X0.243750X-0.456250X0.243750X0.456250X-0.243750X0.456250X0*%
%ADD11RoundRect,0.250000X-0.262500X-0.450000X0.262500X-0.450000X0.262500X0.450000X-0.262500X0.450000X0*%
%ADD12RoundRect,0.243750X-0.456250X0.243750X-0.456250X-0.243750X0.456250X-0.243750X0.456250X0.243750X0*%
%ADD13C,0.700000*%
%ADD14O,0.900000X2.400000*%
%ADD15O,0.900000X1.700000*%
%ADD16RoundRect,0.250000X0.262500X0.450000X-0.262500X0.450000X-0.262500X-0.450000X0.262500X-0.450000X0*%
%ADD17RoundRect,0.250000X2.600000X-0.550000X2.600000X0.550000X-2.600000X0.550000X-2.600000X-0.550000X0*%
%ADD18R,1.400000X1.600000*%
%ADD19C,2.000000*%
%ADD20RoundRect,0.099250X0.807750X0.297750X-0.807750X0.297750X-0.807750X-0.297750X0.807750X-0.297750X0*%
%ADD21RoundRect,0.102000X1.105000X1.550000X-1.105000X1.550000X-1.105000X-1.550000X1.105000X-1.550000X0*%
%ADD22RoundRect,0.250000X-0.450000X0.262500X-0.450000X-0.262500X0.450000X-0.262500X0.450000X0.262500X0*%
G04 APERTURE END LIST*
D10*
%TO.C,D5*%
X58835000Y-29320000D03*
X60710000Y-29320000D03*
%TD*%
D11*
%TO.C,R1*%
X17440000Y-40680000D03*
X19265000Y-40680000D03*
%TD*%
%TO.C,R3*%
X35177500Y-36070000D03*
X37002500Y-36070000D03*
%TD*%
D12*
%TO.C,D1*%
X48860000Y-22012500D03*
X48860000Y-23887500D03*
%TD*%
D13*
%TO.C,J2*%
X26400000Y-24490000D03*
X25550000Y-24490000D03*
X24700000Y-24490000D03*
X23850000Y-24490000D03*
X23000000Y-24490000D03*
X22150000Y-24490000D03*
X21300000Y-24490000D03*
X20450000Y-24490000D03*
X20450000Y-23140000D03*
X21300000Y-23140000D03*
X22150000Y-23140000D03*
X23000000Y-23140000D03*
X23850000Y-23140000D03*
X24700000Y-23140000D03*
X25550000Y-23140000D03*
X26400000Y-23140000D03*
D14*
X27750000Y-23510000D03*
D15*
X27750000Y-20130000D03*
D14*
X19100000Y-23510000D03*
D15*
X19100000Y-20130000D03*
%TD*%
D13*
%TO.C,J1*%
X37490000Y-24450000D03*
X36640000Y-24450000D03*
X35790000Y-24450000D03*
X34940000Y-24450000D03*
X34090000Y-24450000D03*
X33240000Y-24450000D03*
X32390000Y-24450000D03*
X31540000Y-24450000D03*
X31540000Y-23100000D03*
X32390000Y-23100000D03*
X33240000Y-23100000D03*
X34090000Y-23100000D03*
X34940000Y-23100000D03*
X35790000Y-23100000D03*
X36640000Y-23100000D03*
X37490000Y-23100000D03*
D14*
X38840000Y-23470000D03*
D15*
X38840000Y-20090000D03*
D14*
X30190000Y-23470000D03*
D15*
X30190000Y-20090000D03*
%TD*%
D16*
%TO.C,C7*%
X29795000Y-40740000D03*
X27970000Y-40740000D03*
%TD*%
D17*
%TO.C,L1*%
X22140000Y-37440000D03*
X22140000Y-32940000D03*
%TD*%
D16*
%TO.C,R5*%
X34392500Y-27150000D03*
X32567500Y-27150000D03*
%TD*%
D18*
%TO.C,SW1*%
X52940000Y-26730000D03*
X52940000Y-19530000D03*
X55940000Y-26730000D03*
X55940000Y-19530000D03*
%TD*%
D19*
%TO.C,TP1*%
X39280000Y-41270000D03*
%TD*%
D11*
%TO.C,C9*%
X34407500Y-38050000D03*
X36232500Y-38050000D03*
%TD*%
%TO.C,R7*%
X18700000Y-26500000D03*
X20525000Y-26500000D03*
%TD*%
D19*
%TO.C,TP2*%
X42720000Y-41180000D03*
%TD*%
D16*
%TO.C,R8*%
X24045000Y-28460000D03*
X22220000Y-28460000D03*
%TD*%
D20*
%TO.C,U1*%
X32497500Y-38025000D03*
X32497500Y-36755000D03*
X32497500Y-35485000D03*
X32497500Y-34215000D03*
X27187500Y-34215000D03*
X27187500Y-35485000D03*
X27187500Y-36755000D03*
X27187500Y-38025000D03*
D21*
X29842500Y-36120000D03*
%TD*%
D10*
%TO.C,D2*%
X48585000Y-29320000D03*
X50460000Y-29320000D03*
%TD*%
D22*
%TO.C,R4*%
X27090000Y-27437500D03*
X27090000Y-29262500D03*
%TD*%
D16*
%TO.C,C8*%
X40480000Y-34860000D03*
X38655000Y-34860000D03*
%TD*%
%TO.C,C3*%
X26335000Y-40750000D03*
X24510000Y-40750000D03*
%TD*%
%TO.C,C4*%
X33255000Y-40680000D03*
X31430000Y-40680000D03*
%TD*%
D11*
%TO.C,C1*%
X18515000Y-30830000D03*
X20340000Y-30830000D03*
%TD*%
%TO.C,C2*%
X20970000Y-40680000D03*
X22795000Y-40680000D03*
%TD*%
D22*
%TO.C,R2*%
X27090000Y-30827500D03*
X27090000Y-32652500D03*
%TD*%
D11*
%TO.C,R6*%
X36037500Y-27190000D03*
X37862500Y-27190000D03*
%TD*%
D10*
%TO.C,D3*%
X52005000Y-29320000D03*
X53880000Y-29320000D03*
%TD*%
%TO.C,D4*%
X55425000Y-29340000D03*
X57300000Y-29340000D03*
%TD*%
M02*
