%TF.GenerationSoftware,KiCad,Pcbnew,10.0.1*%
%TF.CreationDate,2026-05-10T18:07:13-04:00*%
%TF.ProjectId,Powerbank,506f7765-7262-4616-9e6b-2e6b69636164,rev?*%
%TF.SameCoordinates,Original*%
%TF.FileFunction,Copper,L1,Top*%
%TF.FilePolarity,Positive*%
%FSLAX46Y46*%
G04 Gerber Fmt 4.6, Leading zero omitted, Abs format (unit mm)*
G04 Created by KiCad (PCBNEW 10.0.1) date 2026-05-10 18:07:13*
%MOMM*%
%LPD*%
G01*
G04 APERTURE LIST*
G04 Aperture macros list*
%AMRoundRect*
0 Rectangle with rounded corners*
0 $1 Rounding radius*
0 $2 $3 $4 $5 $6 $7 $8 $9 X,Y pos of 4 corners*
0 Add a 4 corners polygon primitive as box body*
4,1,4,$2,$3,$4,$5,$6,$7,$8,$9,$2,$3,0*
0 Add four circle primitives for the rounded corners*
1,1,$1+$1,$2,$3*
1,1,$1+$1,$4,$5*
1,1,$1+$1,$6,$7*
1,1,$1+$1,$8,$9*
0 Add four rect primitives between the rounded corners*
20,1,$1+$1,$2,$3,$4,$5,0*
20,1,$1+$1,$4,$5,$6,$7,0*
20,1,$1+$1,$6,$7,$8,$9,0*
20,1,$1+$1,$8,$9,$2,$3,0*%
G04 Aperture macros list end*
%TA.AperFunction,SMDPad,CuDef*%
%ADD10RoundRect,0.243750X-0.243750X-0.456250X0.243750X-0.456250X0.243750X0.456250X-0.243750X0.456250X0*%
%TD*%
%TA.AperFunction,SMDPad,CuDef*%
%ADD11RoundRect,0.250000X-0.262500X-0.450000X0.262500X-0.450000X0.262500X0.450000X-0.262500X0.450000X0*%
%TD*%
%TA.AperFunction,SMDPad,CuDef*%
%ADD12RoundRect,0.243750X-0.456250X0.243750X-0.456250X-0.243750X0.456250X-0.243750X0.456250X0.243750X0*%
%TD*%
%TA.AperFunction,ComponentPad*%
%ADD13C,0.700000*%
%TD*%
%TA.AperFunction,ComponentPad*%
%ADD14O,0.900000X2.400000*%
%TD*%
%TA.AperFunction,ComponentPad*%
%ADD15O,0.900000X1.700000*%
%TD*%
%TA.AperFunction,SMDPad,CuDef*%
%ADD16RoundRect,0.250000X0.262500X0.450000X-0.262500X0.450000X-0.262500X-0.450000X0.262500X-0.450000X0*%
%TD*%
%TA.AperFunction,SMDPad,CuDef*%
%ADD17RoundRect,0.250000X2.600000X-0.550000X2.600000X0.550000X-2.600000X0.550000X-2.600000X-0.550000X0*%
%TD*%
%TA.AperFunction,SMDPad,CuDef*%
%ADD18R,1.400000X1.600000*%
%TD*%
%TA.AperFunction,SMDPad,CuDef*%
%ADD19C,2.000000*%
%TD*%
%TA.AperFunction,SMDPad,CuDef*%
%ADD20RoundRect,0.073750X0.731250X0.221250X-0.731250X0.221250X-0.731250X-0.221250X0.731250X-0.221250X0*%
%TD*%
%TA.AperFunction,SMDPad,CuDef*%
%ADD21R,2.210000X3.100000*%
%TD*%
%TA.AperFunction,SMDPad,CuDef*%
%ADD22RoundRect,0.250000X-0.450000X0.262500X-0.450000X-0.262500X0.450000X-0.262500X0.450000X0.262500X0*%
%TD*%
%TA.AperFunction,ViaPad*%
%ADD23C,0.600000*%
%TD*%
%TA.AperFunction,Conductor*%
%ADD24C,0.200000*%
%TD*%
%TA.AperFunction,Conductor*%
%ADD25C,1.000000*%
%TD*%
%TA.AperFunction,Conductor*%
%ADD26C,0.500000*%
%TD*%
%TA.AperFunction,Conductor*%
%ADD27C,0.700000*%
%TD*%
G04 APERTURE END LIST*
D10*
%TO.P,D5,1,K*%
%TO.N,Net-(D4-A)*%
X58835000Y-29320000D03*
%TO.P,D5,2,A*%
%TO.N,Net-(D2-K)*%
X60710000Y-29320000D03*
%TD*%
D11*
%TO.P,R1,1*%
%TO.N,+BATT*%
X17440000Y-40680000D03*
%TO.P,R1,2*%
%TO.N,Net-(C2-Pad1)*%
X19265000Y-40680000D03*
%TD*%
%TO.P,R3,1*%
%TO.N,+5V*%
X35177500Y-36070000D03*
%TO.P,R3,2*%
%TO.N,Net-(C8-Pad1)*%
X37002500Y-36070000D03*
%TD*%
D12*
%TO.P,D1,1,K*%
%TO.N,GNDREF*%
X48860000Y-22012500D03*
%TO.P,D1,2,A*%
%TO.N,Net-(D1-A)*%
X48860000Y-23887500D03*
%TD*%
D13*
%TO.P,J2,A1,GND*%
%TO.N,GNDREF*%
X26400000Y-24490000D03*
%TO.P,J2,A4,VBUS*%
%TO.N,+5V*%
X25550000Y-24490000D03*
%TO.P,J2,A5,CC1*%
%TO.N,Net-(J2-CC1)*%
X24700000Y-24490000D03*
%TO.P,J2,A6,D+*%
%TO.N,unconnected-(J2-D+-PadA6)*%
X23850000Y-24490000D03*
%TO.P,J2,A7,D-*%
%TO.N,unconnected-(J2-D--PadA7)*%
X23000000Y-24490000D03*
%TO.P,J2,A8*%
%TO.N,N/C*%
X22150000Y-24490000D03*
%TO.P,J2,A9,VBUS*%
%TO.N,+5V*%
X21300000Y-24490000D03*
%TO.P,J2,A12,GND*%
%TO.N,GNDREF*%
X20450000Y-24490000D03*
%TO.P,J2,B1,GND*%
X20450000Y-23140000D03*
%TO.P,J2,B4,VBUS*%
%TO.N,+5V*%
X21300000Y-23140000D03*
%TO.P,J2,B5,CC2*%
%TO.N,Net-(J2-CC2)*%
X22150000Y-23140000D03*
%TO.P,J2,B6,D+*%
%TO.N,unconnected-(J2-D+-PadB6)*%
X23000000Y-23140000D03*
%TO.P,J2,B7,D-*%
%TO.N,unconnected-(J2-D--PadB7)*%
X23850000Y-23140000D03*
%TO.P,J2,B8*%
%TO.N,N/C*%
X24700000Y-23140000D03*
%TO.P,J2,B9,VBUS*%
%TO.N,+5V*%
X25550000Y-23140000D03*
%TO.P,J2,B12,GND*%
%TO.N,GNDREF*%
X26400000Y-23140000D03*
D14*
%TO.P,J2,S1,SHIELD*%
%TO.N,unconnected-(J2-SHIELD-PadS1)*%
X27750000Y-23510000D03*
D15*
X27750000Y-20130000D03*
D14*
X19100000Y-23510000D03*
D15*
X19100000Y-20130000D03*
%TD*%
D13*
%TO.P,J1,A1,GND*%
%TO.N,GNDREF*%
X37490000Y-24450000D03*
%TO.P,J1,A4,VBUS*%
%TO.N,Net-(U1-VOUT)*%
X36640000Y-24450000D03*
%TO.P,J1,A5,CC1*%
%TO.N,Net-(J1-CC1)*%
X35790000Y-24450000D03*
%TO.P,J1,A6,D+*%
%TO.N,Net-(J1-D+-PadA6)*%
X34940000Y-24450000D03*
%TO.P,J1,A7,D-*%
X34090000Y-24450000D03*
%TO.P,J1,A8*%
%TO.N,N/C*%
X33240000Y-24450000D03*
%TO.P,J1,A9,VBUS*%
%TO.N,Net-(U1-VOUT)*%
X32390000Y-24450000D03*
%TO.P,J1,A12,GND*%
%TO.N,GNDREF*%
X31540000Y-24450000D03*
%TO.P,J1,B1,GND*%
X31540000Y-23100000D03*
%TO.P,J1,B4,VBUS*%
%TO.N,Net-(U1-VOUT)*%
X32390000Y-23100000D03*
%TO.P,J1,B5,CC2*%
%TO.N,Net-(J1-CC2)*%
X33240000Y-23100000D03*
%TO.P,J1,B6,D+*%
%TO.N,Net-(J1-D+-PadA6)*%
X34090000Y-23100000D03*
%TO.P,J1,B7,D-*%
X34940000Y-23100000D03*
%TO.P,J1,B8*%
%TO.N,N/C*%
X35790000Y-23100000D03*
%TO.P,J1,B9,VBUS*%
%TO.N,Net-(U1-VOUT)*%
X36640000Y-23100000D03*
%TO.P,J1,B12,GND*%
%TO.N,GNDREF*%
X37490000Y-23100000D03*
D14*
%TO.P,J1,S1,SHIELD*%
%TO.N,unconnected-(J1-SHIELD-PadS1)*%
X38840000Y-23470000D03*
D15*
X38840000Y-20090000D03*
D14*
X30190000Y-23470000D03*
D15*
X30190000Y-20090000D03*
%TD*%
D16*
%TO.P,C7,1*%
%TO.N,Net-(U1-VOUT)*%
X29795000Y-40740000D03*
%TO.P,C7,2*%
%TO.N,GNDREF*%
X27970000Y-40740000D03*
%TD*%
D17*
%TO.P,L1,1,1*%
%TO.N,Net-(U1-SW)*%
X22140000Y-37440000D03*
%TO.P,L1,2,2*%
%TO.N,+BATT*%
X22140000Y-32940000D03*
%TD*%
D16*
%TO.P,R5,1*%
%TO.N,Net-(J1-CC2)*%
X34392500Y-27150000D03*
%TO.P,R5,2*%
%TO.N,GNDREF*%
X32567500Y-27150000D03*
%TD*%
D18*
%TO.P,SW1,1,1*%
%TO.N,Net-(R4-Pad1)*%
X52940000Y-26730000D03*
X52940000Y-19530000D03*
%TO.P,SW1,2,2*%
%TO.N,GNDREF*%
X55940000Y-26730000D03*
X55940000Y-19530000D03*
%TD*%
D19*
%TO.P,TP1,1,1*%
%TO.N,+5V*%
X39280000Y-41270000D03*
%TD*%
D11*
%TO.P,C9,1*%
%TO.N,+5V*%
X34407500Y-38050000D03*
%TO.P,C9,2*%
%TO.N,GNDREF*%
X36232500Y-38050000D03*
%TD*%
%TO.P,R7,1*%
%TO.N,Net-(J2-CC1)*%
X18700000Y-26500000D03*
%TO.P,R7,2*%
%TO.N,GNDREF*%
X20525000Y-26500000D03*
%TD*%
D19*
%TO.P,TP2,1,1*%
%TO.N,GNDREF*%
X42720000Y-41180000D03*
%TD*%
D16*
%TO.P,R8,1*%
%TO.N,Net-(J2-CC2)*%
X24045000Y-28460000D03*
%TO.P,R8,2*%
%TO.N,GNDREF*%
X22220000Y-28460000D03*
%TD*%
D20*
%TO.P,U1,1,VIN*%
%TO.N,+5V*%
X32497500Y-38025000D03*
%TO.P,U1,2,LED1*%
%TO.N,Net-(D2-A)*%
X32497500Y-36755000D03*
%TO.P,U1,3,LED2*%
%TO.N,Net-(D4-A)*%
X32497500Y-35485000D03*
%TO.P,U1,4,LED3*%
%TO.N,Net-(D2-K)*%
X32497500Y-34215000D03*
%TO.P,U1,5,KEY*%
%TO.N,Net-(U1-KEY)*%
X27187500Y-34215000D03*
%TO.P,U1,6,BAT*%
%TO.N,+BATT*%
X27187500Y-35485000D03*
%TO.P,U1,7,SW*%
%TO.N,Net-(U1-SW)*%
X27187500Y-36755000D03*
%TO.P,U1,8,VOUT*%
%TO.N,Net-(U1-VOUT)*%
X27187500Y-38025000D03*
D21*
%TO.P,U1,9,POWERPAD*%
%TO.N,GNDREF*%
X29842500Y-36120000D03*
%TD*%
D10*
%TO.P,D2,1,K*%
%TO.N,Net-(D2-K)*%
X48585000Y-29320000D03*
%TO.P,D2,2,A*%
%TO.N,Net-(D2-A)*%
X50460000Y-29320000D03*
%TD*%
D22*
%TO.P,R4,1*%
%TO.N,Net-(R4-Pad1)*%
X27090000Y-27437500D03*
%TO.P,R4,2*%
%TO.N,Net-(U1-KEY)*%
X27090000Y-29262500D03*
%TD*%
D16*
%TO.P,C8,1*%
%TO.N,Net-(C8-Pad1)*%
X40480000Y-34860000D03*
%TO.P,C8,2*%
%TO.N,GNDREF*%
X38655000Y-34860000D03*
%TD*%
%TO.P,C3,1*%
%TO.N,Net-(U1-VOUT)*%
X26335000Y-40750000D03*
%TO.P,C3,2*%
%TO.N,GNDREF*%
X24510000Y-40750000D03*
%TD*%
%TO.P,C4,1*%
%TO.N,Net-(U1-VOUT)*%
X33255000Y-40680000D03*
%TO.P,C4,2*%
%TO.N,GNDREF*%
X31430000Y-40680000D03*
%TD*%
D11*
%TO.P,C1,1*%
%TO.N,+BATT*%
X18515000Y-30830000D03*
%TO.P,C1,2*%
%TO.N,GNDREF*%
X20340000Y-30830000D03*
%TD*%
%TO.P,C2,1*%
%TO.N,Net-(C2-Pad1)*%
X20970000Y-40680000D03*
%TO.P,C2,2*%
%TO.N,GNDREF*%
X22795000Y-40680000D03*
%TD*%
D22*
%TO.P,R2,1*%
%TO.N,Net-(D1-A)*%
X27090000Y-30827500D03*
%TO.P,R2,2*%
%TO.N,Net-(U1-KEY)*%
X27090000Y-32652500D03*
%TD*%
D11*
%TO.P,R6,1*%
%TO.N,Net-(J1-CC1)*%
X36037500Y-27190000D03*
%TO.P,R6,2*%
%TO.N,GNDREF*%
X37862500Y-27190000D03*
%TD*%
D10*
%TO.P,D3,1,K*%
%TO.N,Net-(D2-A)*%
X52005000Y-29320000D03*
%TO.P,D3,2,A*%
%TO.N,Net-(D2-K)*%
X53880000Y-29320000D03*
%TD*%
%TO.P,D4,1,K*%
%TO.N,Net-(D2-K)*%
X55425000Y-29340000D03*
%TO.P,D4,2,A*%
%TO.N,Net-(D4-A)*%
X57300000Y-29340000D03*
%TD*%
D23*
%TO.N,GNDREF*%
X42200000Y-38420000D03*
X48410000Y-39710000D03*
X33850000Y-43620000D03*
X33250000Y-39290000D03*
X31300000Y-25440000D03*
X33860000Y-25730000D03*
%TO.N,Net-(D1-A)*%
X29230000Y-30340000D03*
X39390000Y-26840000D03*
%TO.N,Net-(D2-A)*%
X39367840Y-30381000D03*
X31360000Y-31780000D03*
%TO.N,Net-(D2-K)*%
X30180000Y-32800000D03*
X37332500Y-29380000D03*
%TO.N,Net-(D4-A)*%
X31620000Y-32800000D03*
X35220000Y-31490000D03*
%TO.N,Net-(R4-Pad1)*%
X41860000Y-25900000D03*
X28700000Y-28900000D03*
%TO.N,Net-(J1-CC2)*%
X34230000Y-22020000D03*
X33490000Y-28020000D03*
%TO.N,Net-(J2-CC1)*%
X18730000Y-28030000D03*
X23990000Y-25440000D03*
%TO.N,Net-(J2-CC2)*%
X21870000Y-26270000D03*
X19290000Y-25340000D03*
%TD*%
%TO.N,GNDREF*%
D24*
X17886500Y-28036443D02*
X18481057Y-28631000D01*
X31430000Y-39760000D02*
X31430000Y-40680000D01*
X30941000Y-24490000D02*
X31500000Y-24490000D01*
X26400000Y-23069347D02*
X24938653Y-21608000D01*
X33850000Y-43620000D02*
X32990000Y-43620000D01*
D25*
X22220000Y-28460000D02*
X22220000Y-28195000D01*
D24*
X20450000Y-23140000D02*
X20450000Y-24490000D01*
X26400000Y-24490000D02*
X26999000Y-24490000D01*
X37490000Y-23100000D02*
X37490000Y-24450000D01*
X26400000Y-24490000D02*
X26400000Y-23140000D01*
X36861500Y-28191000D02*
X37862500Y-27190000D01*
X31540000Y-24450000D02*
X31540000Y-23100000D01*
X35539840Y-28191000D02*
X36861500Y-28191000D01*
X28501000Y-24490000D02*
X29439000Y-24490000D01*
X27970000Y-40740000D02*
X26959000Y-41751000D01*
X32990000Y-43620000D02*
X32810000Y-43800000D01*
X31500000Y-24490000D02*
X31540000Y-24450000D01*
X29439000Y-24531074D02*
X29878926Y-24971000D01*
X26959000Y-41751000D02*
X25511000Y-41751000D01*
X29842500Y-36120000D02*
X29842500Y-38172500D01*
X37020000Y-34690000D02*
X36883840Y-34690000D01*
X24938653Y-21608000D02*
X18622826Y-21608000D01*
X36883840Y-34690000D02*
X36189000Y-35384840D01*
X32567500Y-26450000D02*
X33916500Y-25101000D01*
X30501074Y-24971000D02*
X30941000Y-24531074D01*
X27438926Y-25011000D02*
X28061074Y-25011000D01*
X17886500Y-22344326D02*
X17886500Y-28036443D01*
D25*
X20340000Y-30830000D02*
X20340000Y-30340000D01*
D24*
X26999000Y-24571074D02*
X27438926Y-25011000D01*
X29439000Y-24490000D02*
X29439000Y-24531074D01*
X29842500Y-38172500D02*
X31430000Y-39760000D01*
X36189000Y-35384840D02*
X36189000Y-38006500D01*
X18622826Y-21608000D02*
X17886500Y-22344326D01*
X20525000Y-26500000D02*
X20525000Y-24565000D01*
X22049000Y-28631000D02*
X22220000Y-28460000D01*
X18481057Y-28631000D02*
X22049000Y-28631000D01*
X20525000Y-24565000D02*
X20450000Y-24490000D01*
X39590000Y-38050000D02*
X42720000Y-41180000D01*
X36189000Y-38006500D02*
X36232500Y-38050000D01*
X38655000Y-34860000D02*
X37190000Y-34860000D01*
X30941000Y-24531074D02*
X30941000Y-24490000D01*
X28061074Y-25011000D02*
X28501000Y-24571074D01*
X33916500Y-25101000D02*
X35224000Y-26408500D01*
X26400000Y-24490000D02*
X26400000Y-23069347D01*
X25511000Y-41751000D02*
X24510000Y-40750000D01*
X36232500Y-38050000D02*
X39590000Y-38050000D01*
X26999000Y-24490000D02*
X26999000Y-24571074D01*
X32567500Y-27150000D02*
X32567500Y-26450000D01*
X28501000Y-24571074D02*
X28501000Y-24490000D01*
X29878926Y-24971000D02*
X30501074Y-24971000D01*
X37190000Y-34860000D02*
X37020000Y-34690000D01*
X35224000Y-27875160D02*
X35539840Y-28191000D01*
X35224000Y-26408500D02*
X35224000Y-27875160D01*
%TO.N,+BATT*%
D25*
X22140000Y-32940000D02*
X19290000Y-32940000D01*
D24*
X27402020Y-35485000D02*
X27187500Y-35485000D01*
D25*
X17440000Y-37640000D02*
X22140000Y-32940000D01*
X17440000Y-40680000D02*
X17440000Y-37640000D01*
X24685000Y-35485000D02*
X27187500Y-35485000D01*
X19290000Y-32940000D02*
X18515000Y-32165000D01*
X22140000Y-32940000D02*
X24685000Y-35485000D01*
X18515000Y-32165000D02*
X18515000Y-30830000D01*
%TO.N,Net-(C2-Pad1)*%
X19265000Y-40680000D02*
X20970000Y-40680000D01*
%TO.N,Net-(U1-VOUT)*%
D26*
X31604000Y-28960708D02*
X36352292Y-33709000D01*
D25*
X29795000Y-40740000D02*
X29795000Y-41109344D01*
X32554000Y-42081000D02*
X33255000Y-41380000D01*
X26335000Y-38877500D02*
X26335000Y-40750000D01*
D26*
X32390000Y-23100000D02*
X32390000Y-24450000D01*
X36640000Y-23100000D02*
X36640000Y-22810000D01*
X31604000Y-26402708D02*
X31604000Y-28960708D01*
D25*
X30766656Y-42081000D02*
X32554000Y-42081000D01*
X27187500Y-38025000D02*
X26335000Y-38877500D01*
D26*
X41039792Y-33709000D02*
X44171000Y-36840208D01*
X36640000Y-24450000D02*
X36640000Y-23100000D01*
X32390000Y-24450000D02*
X32390000Y-25616708D01*
D25*
X29795000Y-39827500D02*
X29795000Y-40740000D01*
D26*
X32390000Y-25616708D02*
X31604000Y-26402708D01*
X34100000Y-20680000D02*
X32390000Y-22390000D01*
D25*
X27187500Y-38025000D02*
X27992500Y-38025000D01*
D26*
X43318000Y-42721000D02*
X35296000Y-42721000D01*
X36640000Y-22810000D02*
X34510000Y-20680000D01*
X44171000Y-41868000D02*
X43318000Y-42721000D01*
X34510000Y-20680000D02*
X34100000Y-20680000D01*
D25*
X29795000Y-41109344D02*
X30766656Y-42081000D01*
X33255000Y-41380000D02*
X33255000Y-40680000D01*
D26*
X35296000Y-42721000D02*
X33255000Y-40680000D01*
D25*
X27992500Y-38025000D02*
X29795000Y-39827500D01*
D26*
X32390000Y-22390000D02*
X32390000Y-23100000D01*
X36352292Y-33709000D02*
X41039792Y-33709000D01*
X44171000Y-36840208D02*
X44171000Y-41868000D01*
%TO.N,Net-(C8-Pad1)*%
D25*
X39318344Y-36261000D02*
X37193500Y-36261000D01*
X37193500Y-36261000D02*
X37002500Y-36070000D01*
X40480000Y-35099344D02*
X39318344Y-36261000D01*
X40480000Y-34860000D02*
X40480000Y-35099344D01*
%TO.N,+5V*%
X35177500Y-36070000D02*
X34382500Y-36865000D01*
D26*
X25339000Y-25291000D02*
X26654292Y-25291000D01*
X24146646Y-26353354D02*
X27716646Y-26353354D01*
X23760000Y-26740000D02*
X24146646Y-26353354D01*
D27*
X25550000Y-24490000D02*
X25550000Y-23140000D01*
D26*
X22311000Y-25291000D02*
X23760000Y-26740000D01*
X25339000Y-25291000D02*
X25550000Y-25080000D01*
D25*
X32497500Y-38025000D02*
X34382500Y-38025000D01*
X34382500Y-36865000D02*
X34382500Y-38025000D01*
X34407500Y-38750000D02*
X34407500Y-38050000D01*
D26*
X27716646Y-26353354D02*
X35177500Y-33814208D01*
X25550000Y-25080000D02*
X25550000Y-24490000D01*
X21300000Y-24490000D02*
X21300000Y-24772786D01*
X21818214Y-25291000D02*
X22311000Y-25291000D01*
X21300000Y-24772786D02*
X21818214Y-25291000D01*
D25*
X36927500Y-41270000D02*
X34407500Y-38750000D01*
D26*
X21300000Y-23140000D02*
X21300000Y-24490000D01*
X35177500Y-33814208D02*
X35177500Y-36070000D01*
D24*
X34382500Y-38025000D02*
X34407500Y-38050000D01*
D25*
X39280000Y-41270000D02*
X36927500Y-41270000D01*
D26*
X26654292Y-25291000D02*
X27716646Y-26353354D01*
%TO.N,Net-(D1-A)*%
D24*
X28742500Y-30827500D02*
X29230000Y-30340000D01*
X42342500Y-23887500D02*
X39390000Y-26840000D01*
X27090000Y-30827500D02*
X28742500Y-30827500D01*
X48860000Y-23887500D02*
X42342500Y-23887500D01*
%TO.N,Net-(D2-A)*%
X39367840Y-30381000D02*
X49399000Y-30381000D01*
X34004500Y-33654500D02*
X32130000Y-31780000D01*
X32130000Y-31780000D02*
X31360000Y-31780000D01*
X52005000Y-29320000D02*
X50460000Y-29320000D01*
X32497500Y-36755000D02*
X32795000Y-36755000D01*
X32497500Y-36755000D02*
X33302500Y-36755000D01*
X32497500Y-36755000D02*
X32993840Y-36755000D01*
X34004500Y-36053000D02*
X34004500Y-33654500D01*
X49399000Y-30381000D02*
X50460000Y-29320000D01*
X33302500Y-36755000D02*
X34004500Y-36053000D01*
%TO.N,Net-(D2-K)*%
X55425000Y-29340000D02*
X56426000Y-30341000D01*
X37392500Y-29320000D02*
X37332500Y-29380000D01*
X32497500Y-34215000D02*
X31595000Y-34215000D01*
X55405000Y-29320000D02*
X55425000Y-29340000D01*
X31595000Y-34215000D02*
X30180000Y-32800000D01*
X59689000Y-30341000D02*
X60710000Y-29320000D01*
X53880000Y-29320000D02*
X55405000Y-29320000D01*
X52879000Y-28319000D02*
X53880000Y-29320000D01*
X56426000Y-30341000D02*
X59689000Y-30341000D01*
X48585000Y-29320000D02*
X37392500Y-29320000D01*
X49586000Y-28319000D02*
X52879000Y-28319000D01*
X48585000Y-29320000D02*
X49586000Y-28319000D01*
%TO.N,Net-(D4-A)*%
X54356146Y-28319000D02*
X54397146Y-28360000D01*
X49018900Y-28319000D02*
X49419900Y-27918000D01*
X35220000Y-31490000D02*
X35220000Y-30310000D01*
X48067854Y-28360000D02*
X48108854Y-28319000D01*
X53446100Y-28319000D02*
X54356146Y-28319000D01*
X35220000Y-30310000D02*
X36751000Y-28779000D01*
X49419900Y-27918000D02*
X53045100Y-27918000D01*
X33603500Y-33836480D02*
X32567020Y-32800000D01*
X54948854Y-28339000D02*
X55901146Y-28339000D01*
X38191160Y-28360000D02*
X48067854Y-28360000D01*
X55922146Y-28360000D02*
X56320000Y-28360000D01*
X55901146Y-28339000D02*
X55922146Y-28360000D01*
X33603500Y-34593520D02*
X33603500Y-33836480D01*
X58815000Y-29340000D02*
X58835000Y-29320000D01*
X53045100Y-27918000D02*
X53446100Y-28319000D01*
X32567020Y-32800000D02*
X31620000Y-32800000D01*
X56320000Y-28360000D02*
X57300000Y-29340000D01*
X32962500Y-35020000D02*
X33177020Y-35020000D01*
X37980000Y-28806160D02*
X37980000Y-28840000D01*
X48108854Y-28319000D02*
X49018900Y-28319000D01*
X32497500Y-35485000D02*
X32282980Y-35485000D01*
X32497500Y-35485000D02*
X32962500Y-35020000D01*
X54927854Y-28360000D02*
X54948854Y-28339000D01*
X37772160Y-28779000D02*
X38191160Y-28360000D01*
X36751000Y-28779000D02*
X37772160Y-28779000D01*
X57300000Y-29340000D02*
X58815000Y-29340000D01*
X33177020Y-35020000D02*
X33603500Y-34593520D01*
X54397146Y-28360000D02*
X54927854Y-28360000D01*
%TO.N,Net-(U1-KEY)*%
X27090000Y-32652500D02*
X26089000Y-31651500D01*
X26089000Y-30263500D02*
X27090000Y-29262500D01*
X27187500Y-32750000D02*
X27090000Y-32652500D01*
X26089000Y-31651500D02*
X26089000Y-30263500D01*
X27187500Y-34215000D02*
X27187500Y-32750000D01*
%TO.N,Net-(R4-Pad1)*%
X52570000Y-25900000D02*
X41860000Y-25900000D01*
X27090000Y-27437500D02*
X27237500Y-27437500D01*
X52960000Y-26290000D02*
X52570000Y-25900000D01*
X52960000Y-19090000D02*
X52960000Y-26290000D01*
X27237500Y-27437500D02*
X28700000Y-28900000D01*
%TO.N,Net-(J1-CC2)*%
X33522500Y-28020000D02*
X34392500Y-27150000D01*
X33490000Y-28020000D02*
X33522500Y-28020000D01*
X34550000Y-27150000D02*
X34580000Y-27180000D01*
X33240000Y-23100000D02*
X33240000Y-22960000D01*
X33240000Y-22960000D02*
X34180000Y-22020000D01*
X34180000Y-22020000D02*
X34230000Y-22020000D01*
%TO.N,Net-(J1-CC1)*%
X35790000Y-26942500D02*
X36037500Y-27190000D01*
X35790000Y-24450000D02*
X35790000Y-26942500D01*
%TO.N,Net-(J2-CC1)*%
X24700000Y-24490000D02*
X24700000Y-24730000D01*
X18730000Y-26530000D02*
X18700000Y-26500000D01*
X24700000Y-24730000D02*
X23990000Y-25440000D01*
X18730000Y-28030000D02*
X18730000Y-26530000D01*
%TO.N,Net-(J2-CC2)*%
X21870000Y-26285000D02*
X24045000Y-28460000D01*
X18788926Y-22009000D02*
X21089654Y-22009000D01*
X18349000Y-22448926D02*
X18788926Y-22009000D01*
X18918926Y-25141000D02*
X18349000Y-24571074D01*
X22150000Y-23069346D02*
X22150000Y-23140000D01*
X19091000Y-25141000D02*
X18918926Y-25141000D01*
X21870000Y-26270000D02*
X21870000Y-26285000D01*
X21089654Y-22009000D02*
X22150000Y-23069346D01*
X19290000Y-25340000D02*
X19091000Y-25141000D01*
X18349000Y-24571074D02*
X18349000Y-22448926D01*
%TO.N,unconnected-(J1-SHIELD-PadS1)*%
X30190000Y-20090000D02*
X30190000Y-23470000D01*
X30190000Y-20090000D02*
X38840000Y-20090000D01*
%TO.N,Net-(J1-D+-PadA6)*%
X34090000Y-24450000D02*
X34940000Y-24450000D01*
X34940000Y-23100000D02*
X34090000Y-23100000D01*
X34940000Y-24450000D02*
X34940000Y-23100000D01*
X34090000Y-23100000D02*
X34090000Y-24450000D01*
%TO.N,unconnected-(J2-SHIELD-PadS1)*%
X27750000Y-20130000D02*
X19100000Y-20130000D01*
X27750000Y-20130000D02*
X27750000Y-23510000D01*
%TO.N,Net-(U1-SW)*%
D25*
X19980000Y-37440000D02*
X22152500Y-37440000D01*
X22825000Y-36755000D02*
X22140000Y-37440000D01*
X27187500Y-36755000D02*
X22825000Y-36755000D01*
%TD*%
%TA.AperFunction,Conductor*%
%TO.N,GNDREF*%
G36*
X18633064Y-18690185D02*
G01*
X18678819Y-18742989D01*
X18688763Y-18812147D01*
X18659738Y-18875703D01*
X18634916Y-18897602D01*
X18494092Y-18991697D01*
X18494088Y-18991700D01*
X18361700Y-19124088D01*
X18361697Y-19124092D01*
X18257681Y-19279762D01*
X18257676Y-19279771D01*
X18186027Y-19452748D01*
X18186025Y-19452756D01*
X18149500Y-19636379D01*
X18149500Y-20623620D01*
X18186025Y-20807243D01*
X18186027Y-20807251D01*
X18257676Y-20980228D01*
X18257681Y-20980237D01*
X18361697Y-21135907D01*
X18361700Y-21135911D01*
X18494091Y-21268302D01*
X18502932Y-21274209D01*
X18547737Y-21327821D01*
X18556444Y-21397146D01*
X18526290Y-21460173D01*
X18496042Y-21484698D01*
X18420210Y-21528479D01*
X17868481Y-22080208D01*
X17868475Y-22080216D01*
X17825825Y-22154090D01*
X17825825Y-22154091D01*
X17789423Y-22217140D01*
X17789423Y-22217141D01*
X17748499Y-22369869D01*
X17748499Y-22369871D01*
X17748499Y-22537972D01*
X17748500Y-22537985D01*
X17748500Y-24484404D01*
X17748499Y-24484422D01*
X17748499Y-24650128D01*
X17748498Y-24650128D01*
X17789424Y-24802863D01*
X17789425Y-24802864D01*
X17814038Y-24845494D01*
X17814039Y-24845496D01*
X17868475Y-24939783D01*
X17868481Y-24939791D01*
X17987349Y-25058659D01*
X17987355Y-25058664D01*
X18115952Y-25187261D01*
X18149437Y-25248584D01*
X18144453Y-25318276D01*
X18102581Y-25374209D01*
X18093368Y-25380480D01*
X17968847Y-25457285D01*
X17968843Y-25457288D01*
X17844789Y-25581342D01*
X17752687Y-25730663D01*
X17752686Y-25730666D01*
X17697501Y-25897203D01*
X17697501Y-25897204D01*
X17697500Y-25897204D01*
X17687000Y-25999983D01*
X17687000Y-27000001D01*
X17687001Y-27000019D01*
X17697500Y-27102796D01*
X17697501Y-27102799D01*
X17733847Y-27212483D01*
X17752686Y-27269334D01*
X17843944Y-27417288D01*
X17844789Y-27418657D01*
X17973951Y-27547819D01*
X17972874Y-27548895D01*
X18008428Y-27599109D01*
X18011566Y-27668908D01*
X18005701Y-27686803D01*
X17960264Y-27796498D01*
X17960261Y-27796510D01*
X17929500Y-27951153D01*
X17929500Y-28108846D01*
X17960261Y-28263489D01*
X17960264Y-28263501D01*
X18020602Y-28409172D01*
X18020609Y-28409185D01*
X18108210Y-28540288D01*
X18108213Y-28540292D01*
X18219707Y-28651786D01*
X18219711Y-28651789D01*
X18350814Y-28739390D01*
X18350827Y-28739397D01*
X18472363Y-28789738D01*
X18496503Y-28799737D01*
X18651153Y-28830499D01*
X18651156Y-28830500D01*
X18651158Y-28830500D01*
X18808844Y-28830500D01*
X18808845Y-28830499D01*
X18963497Y-28799737D01*
X19109179Y-28739394D01*
X19240289Y-28651789D01*
X19267242Y-28624836D01*
X19321122Y-28570957D01*
X19351786Y-28540292D01*
X19351789Y-28540289D01*
X19439394Y-28409179D01*
X19443612Y-28398997D01*
X19463700Y-28350498D01*
X19499737Y-28263497D01*
X19530500Y-28108842D01*
X19530500Y-27951158D01*
X19530500Y-27951155D01*
X19530499Y-27951153D01*
X19510935Y-27852799D01*
X19499737Y-27796503D01*
X19482660Y-27755275D01*
X19437063Y-27645192D01*
X19439810Y-27644053D01*
X19437033Y-27631007D01*
X19427893Y-27606500D01*
X19429876Y-27597380D01*
X19427934Y-27588252D01*
X19437184Y-27563786D01*
X19442744Y-27538227D01*
X19451036Y-27527148D01*
X19452644Y-27522898D01*
X19463888Y-27509979D01*
X19525175Y-27448692D01*
X19586494Y-27415210D01*
X19656186Y-27420194D01*
X19700534Y-27448695D01*
X19794154Y-27542315D01*
X19943375Y-27634356D01*
X19943380Y-27634358D01*
X20109802Y-27689505D01*
X20109809Y-27689506D01*
X20212519Y-27699999D01*
X20274999Y-27699998D01*
X20275000Y-27699998D01*
X20275000Y-26624000D01*
X20294685Y-26556961D01*
X20347489Y-26511206D01*
X20399000Y-26500000D01*
X20651000Y-26500000D01*
X20718039Y-26519685D01*
X20763794Y-26572489D01*
X20775000Y-26624000D01*
X20775000Y-27699999D01*
X20837472Y-27699999D01*
X20837486Y-27699998D01*
X20940195Y-27689506D01*
X21080346Y-27643064D01*
X21150175Y-27640662D01*
X21210217Y-27676393D01*
X21241410Y-27738914D01*
X21237057Y-27799772D01*
X21217996Y-27857295D01*
X21217993Y-27857309D01*
X21207500Y-27960013D01*
X21207500Y-28210000D01*
X22096000Y-28210000D01*
X22163039Y-28229685D01*
X22208794Y-28282489D01*
X22220000Y-28334000D01*
X22220000Y-28460000D01*
X22346000Y-28460000D01*
X22413039Y-28479685D01*
X22458794Y-28532489D01*
X22470000Y-28584000D01*
X22470000Y-29659999D01*
X22532472Y-29659999D01*
X22532486Y-29659998D01*
X22635197Y-29649505D01*
X22801619Y-29594358D01*
X22801624Y-29594356D01*
X22950842Y-29502317D01*
X23044464Y-29408695D01*
X23105787Y-29375210D01*
X23175479Y-29380194D01*
X23219827Y-29408695D01*
X23313844Y-29502712D01*
X23463166Y-29594814D01*
X23629703Y-29649999D01*
X23732491Y-29660500D01*
X24357508Y-29660499D01*
X24357516Y-29660498D01*
X24357519Y-29660498D01*
X24413802Y-29654748D01*
X24460297Y-29649999D01*
X24626834Y-29594814D01*
X24776156Y-29502712D01*
X24900212Y-29378656D01*
X24992314Y-29229334D01*
X25047499Y-29062797D01*
X25058000Y-28960009D01*
X25057999Y-27959992D01*
X25047499Y-27857203D01*
X24992314Y-27690666D01*
X24900212Y-27541344D01*
X24776156Y-27417288D01*
X24640138Y-27333391D01*
X24593415Y-27281445D01*
X24582192Y-27212483D01*
X24610036Y-27148400D01*
X24668104Y-27109544D01*
X24705236Y-27103854D01*
X25765500Y-27103854D01*
X25832539Y-27123539D01*
X25878294Y-27176343D01*
X25889500Y-27227854D01*
X25889500Y-27750001D01*
X25889501Y-27750019D01*
X25900000Y-27852796D01*
X25900001Y-27852799D01*
X25935304Y-27959334D01*
X25955186Y-28019334D01*
X26035727Y-28149913D01*
X26047289Y-28168657D01*
X26140951Y-28262319D01*
X26174436Y-28323642D01*
X26169452Y-28393334D01*
X26140951Y-28437681D01*
X26047289Y-28531342D01*
X25955187Y-28680663D01*
X25955185Y-28680668D01*
X25944729Y-28712223D01*
X25900001Y-28847203D01*
X25900001Y-28847204D01*
X25900000Y-28847204D01*
X25889500Y-28949983D01*
X25889500Y-29562401D01*
X25880854Y-29591844D01*
X25874332Y-29621827D01*
X25870577Y-29626842D01*
X25869815Y-29629440D01*
X25853182Y-29650082D01*
X25720286Y-29782978D01*
X25720285Y-29782978D01*
X25720284Y-29782979D01*
X25608481Y-29894782D01*
X25608477Y-29894787D01*
X25558992Y-29980500D01*
X25558991Y-29980499D01*
X25529424Y-30031711D01*
X25529423Y-30031715D01*
X25488499Y-30184443D01*
X25488499Y-30184445D01*
X25488499Y-30352546D01*
X25488500Y-30352559D01*
X25488500Y-31572439D01*
X25488499Y-31572443D01*
X25488499Y-31730557D01*
X25498985Y-31769692D01*
X25499648Y-31782832D01*
X25494447Y-31804529D01*
X25493917Y-31826831D01*
X25486463Y-31837843D01*
X25483364Y-31850777D01*
X25467260Y-31866217D01*
X25454755Y-31884694D01*
X25442529Y-31889929D01*
X25432930Y-31899133D01*
X25411034Y-31903416D01*
X25390526Y-31912198D01*
X25377412Y-31909992D01*
X25364360Y-31912546D01*
X25343624Y-31904311D01*
X25321624Y-31900612D01*
X25305630Y-31889222D01*
X25299424Y-31886758D01*
X25296565Y-31882767D01*
X25288124Y-31876756D01*
X25208657Y-31797289D01*
X25208656Y-31797288D01*
X25059334Y-31705186D01*
X24892797Y-31650001D01*
X24892795Y-31650000D01*
X24790016Y-31639500D01*
X24790009Y-31639500D01*
X21445198Y-31639500D01*
X21378159Y-31619815D01*
X21332404Y-31567011D01*
X21322460Y-31497853D01*
X21327492Y-31476497D01*
X21342004Y-31432700D01*
X21342006Y-31432690D01*
X21352499Y-31329986D01*
X21352500Y-31329973D01*
X21352500Y-31080000D01*
X20464000Y-31080000D01*
X20396961Y-31060315D01*
X20351206Y-31007511D01*
X20340000Y-30956000D01*
X20340000Y-30830000D01*
X20214000Y-30830000D01*
X20146961Y-30810315D01*
X20101206Y-30757511D01*
X20090000Y-30706000D01*
X20090000Y-30580000D01*
X20590000Y-30580000D01*
X21352499Y-30580000D01*
X21352499Y-30330028D01*
X21352498Y-30330013D01*
X21342005Y-30227302D01*
X21286858Y-30060880D01*
X21286856Y-30060875D01*
X21194815Y-29911654D01*
X21070845Y-29787684D01*
X20921624Y-29695643D01*
X20921619Y-29695641D01*
X20755197Y-29640494D01*
X20755190Y-29640493D01*
X20652486Y-29630000D01*
X20590000Y-29630000D01*
X20590000Y-30580000D01*
X20090000Y-30580000D01*
X20090000Y-29630000D01*
X20089999Y-29629999D01*
X20027528Y-29630000D01*
X20027511Y-29630001D01*
X19924802Y-29640494D01*
X19758380Y-29695641D01*
X19758375Y-29695643D01*
X19609157Y-29787682D01*
X19515534Y-29881305D01*
X19454210Y-29914789D01*
X19384519Y-29909805D01*
X19340172Y-29881304D01*
X19246157Y-29787289D01*
X19246156Y-29787288D01*
X19120143Y-29709563D01*
X19096836Y-29695187D01*
X19096831Y-29695185D01*
X19051772Y-29680254D01*
X18930297Y-29640001D01*
X18930295Y-29640000D01*
X18827510Y-29629500D01*
X18202498Y-29629500D01*
X18202480Y-29629501D01*
X18099703Y-29640000D01*
X18099700Y-29640001D01*
X17933168Y-29695185D01*
X17933163Y-29695187D01*
X17783842Y-29787289D01*
X17659789Y-29911342D01*
X17567687Y-30060663D01*
X17567685Y-30060668D01*
X17567615Y-30060880D01*
X17512501Y-30227203D01*
X17512501Y-30227204D01*
X17512500Y-30227204D01*
X17502000Y-30329983D01*
X17502000Y-31330001D01*
X17502001Y-31330019D01*
X17513189Y-31439533D01*
X17512839Y-31439568D01*
X17514500Y-31455259D01*
X17514500Y-32263541D01*
X17522194Y-32302218D01*
X17522194Y-32302221D01*
X17545784Y-32420821D01*
X17547866Y-32431284D01*
X17552949Y-32456835D01*
X17552950Y-32456839D01*
X17628364Y-32638907D01*
X17628371Y-32638920D01*
X17737859Y-32802780D01*
X17737860Y-32802781D01*
X17737861Y-32802782D01*
X17877218Y-32942139D01*
X17877219Y-32942139D01*
X17884286Y-32949206D01*
X17884285Y-32949206D01*
X17884289Y-32949209D01*
X18652215Y-33717137D01*
X18652223Y-33717143D01*
X18816075Y-33826625D01*
X18816079Y-33826627D01*
X18816086Y-33826632D01*
X18845894Y-33838978D01*
X18900296Y-33882817D01*
X18903978Y-33888439D01*
X18947288Y-33958656D01*
X19071344Y-34082712D01*
X19220666Y-34174814D01*
X19232335Y-34178680D01*
X19289779Y-34218453D01*
X19316602Y-34282969D01*
X19304287Y-34351745D01*
X19281011Y-34384067D01*
X18035748Y-35629331D01*
X16802220Y-36862859D01*
X16802218Y-36862861D01*
X16766300Y-36898779D01*
X16662859Y-37002219D01*
X16553371Y-37166079D01*
X16553364Y-37166092D01*
X16511866Y-37266278D01*
X16511860Y-37266294D01*
X16510119Y-37270499D01*
X16477949Y-37348164D01*
X16469074Y-37392782D01*
X16467586Y-37400261D01*
X16467585Y-37400265D01*
X16439500Y-37541456D01*
X16439500Y-40054740D01*
X16437839Y-40070433D01*
X16438189Y-40070469D01*
X16427000Y-40179983D01*
X16427000Y-41180001D01*
X16427001Y-41180019D01*
X16437500Y-41282796D01*
X16437501Y-41282799D01*
X16472392Y-41388092D01*
X16492686Y-41449334D01*
X16584788Y-41598656D01*
X16708844Y-41722712D01*
X16858166Y-41814814D01*
X17024703Y-41869999D01*
X17127491Y-41880500D01*
X17752508Y-41880499D01*
X17752516Y-41880498D01*
X17752519Y-41880498D01*
X17812644Y-41874356D01*
X17855297Y-41869999D01*
X18021834Y-41814814D01*
X18171156Y-41722712D01*
X18264819Y-41629049D01*
X18326142Y-41595564D01*
X18395834Y-41600548D01*
X18440181Y-41629049D01*
X18533844Y-41722712D01*
X18683166Y-41814814D01*
X18849703Y-41869999D01*
X18952491Y-41880500D01*
X19577508Y-41880499D01*
X19577516Y-41880498D01*
X19577519Y-41880498D01*
X19637644Y-41874356D01*
X19680297Y-41869999D01*
X19846834Y-41814814D01*
X19996156Y-41722712D01*
X20002049Y-41716819D01*
X20028976Y-41702115D01*
X20054795Y-41685523D01*
X20060995Y-41684631D01*
X20063372Y-41683334D01*
X20089730Y-41680500D01*
X20145270Y-41680500D01*
X20212309Y-41700185D01*
X20232951Y-41716819D01*
X20238844Y-41722712D01*
X20388166Y-41814814D01*
X20554703Y-41869999D01*
X20657491Y-41880500D01*
X21282508Y-41880499D01*
X21282516Y-41880498D01*
X21282519Y-41880498D01*
X21342644Y-41874356D01*
X21385297Y-41869999D01*
X21551834Y-41814814D01*
X21701156Y-41722712D01*
X21795175Y-41628692D01*
X21856494Y-41595210D01*
X21926186Y-41600194D01*
X21970534Y-41628695D01*
X22064154Y-41722315D01*
X22213375Y-41814356D01*
X22213380Y-41814358D01*
X22379802Y-41869505D01*
X22379809Y-41869506D01*
X22482519Y-41879999D01*
X23045000Y-41879999D01*
X23107472Y-41879999D01*
X23107486Y-41879998D01*
X23210197Y-41869505D01*
X23376619Y-41814358D01*
X23376624Y-41814356D01*
X23525846Y-41722315D01*
X23529814Y-41718347D01*
X23591135Y-41684858D01*
X23660827Y-41689839D01*
X23705181Y-41718342D01*
X23779154Y-41792315D01*
X23928375Y-41884356D01*
X23928380Y-41884358D01*
X24094802Y-41939505D01*
X24094809Y-41939506D01*
X24197519Y-41949999D01*
X24259999Y-41949998D01*
X24260000Y-41949998D01*
X24260000Y-41000000D01*
X23488862Y-41000000D01*
X23421823Y-40980315D01*
X23401181Y-40963681D01*
X23367500Y-40930000D01*
X23045000Y-40930000D01*
X23045000Y-41879999D01*
X22482519Y-41879999D01*
X22544999Y-41879998D01*
X22545000Y-41879998D01*
X22545000Y-40430000D01*
X23045000Y-40430000D01*
X23816138Y-40430000D01*
X23883177Y-40449685D01*
X23903819Y-40466319D01*
X23937500Y-40500000D01*
X24260000Y-40500000D01*
X24260000Y-39550000D01*
X24259999Y-39549999D01*
X24197528Y-39550000D01*
X24197511Y-39550001D01*
X24094802Y-39560494D01*
X23928380Y-39615641D01*
X23928375Y-39615643D01*
X23779154Y-39707684D01*
X23775171Y-39711667D01*
X23713844Y-39745145D01*
X23644153Y-39740153D01*
X23599818Y-39711657D01*
X23525845Y-39637684D01*
X23376624Y-39545643D01*
X23376619Y-39545641D01*
X23210197Y-39490494D01*
X23210190Y-39490493D01*
X23107486Y-39480000D01*
X23045000Y-39480000D01*
X23045000Y-40430000D01*
X22545000Y-40430000D01*
X22545000Y-39480000D01*
X22544999Y-39479999D01*
X22482528Y-39480000D01*
X22482511Y-39480001D01*
X22379802Y-39490494D01*
X22213380Y-39545641D01*
X22213375Y-39545643D01*
X22064157Y-39637682D01*
X21970534Y-39731305D01*
X21909210Y-39764789D01*
X21839519Y-39759805D01*
X21795172Y-39731304D01*
X21701157Y-39637289D01*
X21701156Y-39637288D01*
X21592270Y-39570127D01*
X21551836Y-39545187D01*
X21551831Y-39545185D01*
X21527806Y-39537224D01*
X21385297Y-39490001D01*
X21385295Y-39490000D01*
X21282510Y-39479500D01*
X20657498Y-39479500D01*
X20657480Y-39479501D01*
X20554703Y-39490000D01*
X20554700Y-39490001D01*
X20388168Y-39545185D01*
X20388163Y-39545187D01*
X20238842Y-39637289D01*
X20232951Y-39643181D01*
X20206023Y-39657884D01*
X20180205Y-39674477D01*
X20174004Y-39675368D01*
X20171628Y-39676666D01*
X20145270Y-39679500D01*
X20089730Y-39679500D01*
X20022691Y-39659815D01*
X20002049Y-39643181D01*
X19996157Y-39637289D01*
X19996156Y-39637288D01*
X19887270Y-39570127D01*
X19846836Y-39545187D01*
X19846831Y-39545185D01*
X19822806Y-39537224D01*
X19680297Y-39490001D01*
X19680295Y-39490000D01*
X19577510Y-39479500D01*
X18952498Y-39479500D01*
X18952480Y-39479501D01*
X18849703Y-39490000D01*
X18849700Y-39490001D01*
X18683168Y-39545185D01*
X18683161Y-39545188D01*
X18629595Y-39578228D01*
X18562203Y-39596667D01*
X18495539Y-39575744D01*
X18450771Y-39522101D01*
X18440500Y-39472688D01*
X18440500Y-38105781D01*
X18449145Y-38076337D01*
X18455668Y-38046355D01*
X18459422Y-38041339D01*
X18460185Y-38038742D01*
X18476810Y-38018109D01*
X18577823Y-37917095D01*
X18639141Y-37883614D01*
X18708833Y-37888598D01*
X18764767Y-37930469D01*
X18789184Y-37995933D01*
X18789500Y-38004777D01*
X18789500Y-38039999D01*
X18789501Y-38040019D01*
X18800000Y-38142796D01*
X18800001Y-38142799D01*
X18826785Y-38223626D01*
X18855186Y-38309334D01*
X18947288Y-38458656D01*
X19071344Y-38582712D01*
X19220666Y-38674814D01*
X19387203Y-38729999D01*
X19489991Y-38740500D01*
X24790008Y-38740499D01*
X24892797Y-38729999D01*
X25059334Y-38674814D01*
X25154355Y-38616204D01*
X25221746Y-38597764D01*
X25288410Y-38618686D01*
X25333179Y-38672328D01*
X25341841Y-38741659D01*
X25341069Y-38745932D01*
X25334500Y-38778959D01*
X25334500Y-39543275D01*
X25314815Y-39610314D01*
X25262011Y-39656069D01*
X25192853Y-39666013D01*
X25145404Y-39648814D01*
X25091628Y-39615646D01*
X25091619Y-39615641D01*
X24925197Y-39560494D01*
X24925190Y-39560493D01*
X24822486Y-39550000D01*
X24760000Y-39550000D01*
X24760000Y-41949999D01*
X24822472Y-41949999D01*
X24822486Y-41949998D01*
X24925197Y-41939505D01*
X25091619Y-41884358D01*
X25091624Y-41884356D01*
X25240842Y-41792317D01*
X25334464Y-41698695D01*
X25395787Y-41665210D01*
X25465479Y-41670194D01*
X25509827Y-41698695D01*
X25603844Y-41792712D01*
X25753166Y-41884814D01*
X25919703Y-41939999D01*
X26022491Y-41950500D01*
X26647508Y-41950499D01*
X26647516Y-41950498D01*
X26647519Y-41950498D01*
X26703802Y-41944748D01*
X26750297Y-41939999D01*
X26916834Y-41884814D01*
X27066156Y-41792712D01*
X27070318Y-41788549D01*
X27131637Y-41755063D01*
X27201329Y-41760044D01*
X27234912Y-41778961D01*
X27239154Y-41782315D01*
X27388375Y-41874356D01*
X27388380Y-41874358D01*
X27554802Y-41929505D01*
X27554809Y-41929506D01*
X27657519Y-41939999D01*
X27719999Y-41939998D01*
X27720000Y-41939998D01*
X27720000Y-40864000D01*
X27739685Y-40796961D01*
X27792489Y-40751206D01*
X27844000Y-40740000D01*
X28096000Y-40740000D01*
X28163039Y-40759685D01*
X28208794Y-40812489D01*
X28220000Y-40864000D01*
X28220000Y-41939999D01*
X28282472Y-41939999D01*
X28282486Y-41939998D01*
X28385197Y-41929505D01*
X28551619Y-41874358D01*
X28551624Y-41874356D01*
X28700842Y-41782317D01*
X28794464Y-41688695D01*
X28802411Y-41684355D01*
X28807836Y-41677109D01*
X28832592Y-41667875D01*
X28855787Y-41655210D01*
X28864817Y-41655855D01*
X28873300Y-41652692D01*
X28899120Y-41658308D01*
X28925479Y-41660194D01*
X28934532Y-41666012D01*
X28941573Y-41667544D01*
X28969827Y-41688695D01*
X28988287Y-41707155D01*
X29003706Y-41725943D01*
X29017858Y-41747123D01*
X29017867Y-41747133D01*
X29161537Y-41890803D01*
X29161559Y-41890823D01*
X29986391Y-42715655D01*
X29986420Y-42715686D01*
X30128870Y-42858136D01*
X30128874Y-42858139D01*
X30292735Y-42967628D01*
X30292748Y-42967635D01*
X30421489Y-43020961D01*
X30464400Y-43038735D01*
X30474820Y-43043051D01*
X30571468Y-43062275D01*
X30619791Y-43071887D01*
X30668114Y-43081500D01*
X30668115Y-43081500D01*
X32652542Y-43081500D01*
X32683566Y-43075328D01*
X32749188Y-43062275D01*
X32845836Y-43043051D01*
X32899165Y-43020961D01*
X33027914Y-42967632D01*
X33191782Y-42858139D01*
X33331139Y-42718782D01*
X33331139Y-42718780D01*
X33341347Y-42708573D01*
X33341348Y-42708570D01*
X33694097Y-42355821D01*
X33755417Y-42322339D01*
X33825109Y-42327323D01*
X33869456Y-42355824D01*
X34817586Y-43303954D01*
X34847058Y-43323645D01*
X34891270Y-43353186D01*
X34940505Y-43386084D01*
X34940506Y-43386084D01*
X34940507Y-43386085D01*
X34940509Y-43386086D01*
X35077082Y-43442656D01*
X35077087Y-43442658D01*
X35077091Y-43442658D01*
X35077092Y-43442659D01*
X35222079Y-43471500D01*
X35222082Y-43471500D01*
X43391920Y-43471500D01*
X43489462Y-43452096D01*
X43536913Y-43442658D01*
X43673495Y-43386084D01*
X43722729Y-43353186D01*
X43722734Y-43353183D01*
X43747071Y-43336921D01*
X43796416Y-43303952D01*
X44753951Y-42346416D01*
X44836084Y-42223495D01*
X44892658Y-42086913D01*
X44915815Y-41970500D01*
X44921500Y-41941920D01*
X44921500Y-36766287D01*
X44892659Y-36621300D01*
X44892658Y-36621299D01*
X44892658Y-36621295D01*
X44892656Y-36621290D01*
X44836086Y-36484716D01*
X44773525Y-36391086D01*
X44773525Y-36391085D01*
X44773523Y-36391084D01*
X44753952Y-36361792D01*
X43237970Y-34845810D01*
X41518213Y-33126052D01*
X41518206Y-33126046D01*
X41444521Y-33076812D01*
X41444521Y-33076813D01*
X41395283Y-33043913D01*
X41258709Y-32987343D01*
X41258699Y-32987340D01*
X41113712Y-32958500D01*
X41113710Y-32958500D01*
X36714522Y-32958500D01*
X36647483Y-32938815D01*
X36626841Y-32922181D01*
X35858936Y-32154276D01*
X35825451Y-32092953D01*
X35830435Y-32023261D01*
X35843508Y-31997715D01*
X35929394Y-31869179D01*
X35989737Y-31723497D01*
X36020500Y-31568842D01*
X36020500Y-31411158D01*
X36020500Y-31411155D01*
X36020499Y-31411153D01*
X35989738Y-31256510D01*
X35989737Y-31256503D01*
X35989735Y-31256498D01*
X35929397Y-31110827D01*
X35929390Y-31110814D01*
X35841398Y-30979125D01*
X35820520Y-30912447D01*
X35820500Y-30910234D01*
X35820500Y-30610096D01*
X35840185Y-30543057D01*
X35856815Y-30522419D01*
X36515044Y-29864189D01*
X36576367Y-29830705D01*
X36646059Y-29835689D01*
X36701992Y-29877561D01*
X36705827Y-29882981D01*
X36710707Y-29890284D01*
X36710713Y-29890292D01*
X36822207Y-30001786D01*
X36822211Y-30001789D01*
X36953314Y-30089390D01*
X36953327Y-30089397D01*
X37098998Y-30149735D01*
X37099003Y-30149737D01*
X37253653Y-30180499D01*
X37253656Y-30180500D01*
X37253658Y-30180500D01*
X37411344Y-30180500D01*
X37411345Y-30180499D01*
X37565997Y-30149737D01*
X37703135Y-30092933D01*
X37711672Y-30089397D01*
X37711672Y-30089396D01*
X37711679Y-30089394D01*
X37842789Y-30001789D01*
X37887758Y-29956820D01*
X37949081Y-29923334D01*
X37975440Y-29920500D01*
X38506551Y-29920500D01*
X38573590Y-29940185D01*
X38619345Y-29992989D01*
X38629289Y-30062147D01*
X38621113Y-30091950D01*
X38598103Y-30147503D01*
X38598102Y-30147506D01*
X38598102Y-30147507D01*
X38598101Y-30147510D01*
X38567340Y-30302153D01*
X38567340Y-30459846D01*
X38598101Y-30614489D01*
X38598104Y-30614501D01*
X38658442Y-30760172D01*
X38658449Y-30760185D01*
X38746050Y-30891288D01*
X38746053Y-30891292D01*
X38857547Y-31002786D01*
X38857551Y-31002789D01*
X38988654Y-31090390D01*
X38988667Y-31090397D01*
X39111048Y-31141088D01*
X39134343Y-31150737D01*
X39254159Y-31174570D01*
X39288993Y-31181499D01*
X39288996Y-31181500D01*
X39288998Y-31181500D01*
X39446684Y-31181500D01*
X39446685Y-31181499D01*
X39601337Y-31150737D01*
X39747019Y-31090394D01*
X39762575Y-31080000D01*
X39878715Y-31002398D01*
X39945393Y-30981520D01*
X39947606Y-30981500D01*
X49312331Y-30981500D01*
X49312347Y-30981501D01*
X49319943Y-30981501D01*
X49478054Y-30981501D01*
X49478057Y-30981501D01*
X49630785Y-30940577D01*
X49689709Y-30906557D01*
X49767716Y-30861520D01*
X49879520Y-30749716D01*
X49879520Y-30749714D01*
X49889724Y-30739511D01*
X49889728Y-30739506D01*
X50072581Y-30556652D01*
X50133902Y-30523169D01*
X50163495Y-30520748D01*
X50163495Y-30520500D01*
X50166527Y-30520500D01*
X50166576Y-30520496D01*
X50166649Y-30520499D01*
X50166652Y-30520500D01*
X50166654Y-30520500D01*
X50753343Y-30520500D01*
X50753348Y-30520500D01*
X50855275Y-30510087D01*
X51020425Y-30455362D01*
X51037195Y-30445017D01*
X51167403Y-30364705D01*
X51234795Y-30346264D01*
X51297597Y-30364705D01*
X51444566Y-30455357D01*
X51444569Y-30455358D01*
X51444575Y-30455362D01*
X51609725Y-30510087D01*
X51711652Y-30520500D01*
X51711657Y-30520500D01*
X52298343Y-30520500D01*
X52298348Y-30520500D01*
X52400275Y-30510087D01*
X52565425Y-30455362D01*
X52713503Y-30364026D01*
X52836526Y-30241003D01*
X52836958Y-30240301D01*
X52837381Y-30239921D01*
X52841007Y-30235336D01*
X52841790Y-30235955D01*
X52888902Y-30193575D01*
X52957864Y-30182349D01*
X53021948Y-30210188D01*
X53043842Y-30235455D01*
X53043993Y-30235336D01*
X53046643Y-30238687D01*
X53048040Y-30240299D01*
X53048472Y-30240999D01*
X53048475Y-30241004D01*
X53171496Y-30364025D01*
X53171500Y-30364028D01*
X53319566Y-30455357D01*
X53319569Y-30455358D01*
X53319575Y-30455362D01*
X53484725Y-30510087D01*
X53586652Y-30520500D01*
X53586657Y-30520500D01*
X54173343Y-30520500D01*
X54173348Y-30520500D01*
X54275275Y-30510087D01*
X54440425Y-30455362D01*
X54572299Y-30374020D01*
X54639690Y-30355580D01*
X54706353Y-30376502D01*
X54714310Y-30382296D01*
X54716493Y-30384022D01*
X54716497Y-30384026D01*
X54716501Y-30384028D01*
X54716503Y-30384030D01*
X54864566Y-30475357D01*
X54864569Y-30475358D01*
X54864575Y-30475362D01*
X55029725Y-30530087D01*
X55131652Y-30540500D01*
X55131657Y-30540500D01*
X55718337Y-30540500D01*
X55718348Y-30540500D01*
X55718359Y-30540498D01*
X55718415Y-30540496D01*
X55718432Y-30540500D01*
X55721505Y-30540500D01*
X55721505Y-30541234D01*
X55786371Y-30556737D01*
X55812418Y-30576654D01*
X56057284Y-30821520D01*
X56057286Y-30821521D01*
X56057290Y-30821524D01*
X56194209Y-30900573D01*
X56194212Y-30900575D01*
X56194216Y-30900577D01*
X56346943Y-30941501D01*
X56346945Y-30941501D01*
X56512654Y-30941501D01*
X56512670Y-30941500D01*
X59602331Y-30941500D01*
X59602347Y-30941501D01*
X59609943Y-30941501D01*
X59768054Y-30941501D01*
X59768057Y-30941501D01*
X59920785Y-30900577D01*
X59920787Y-30900575D01*
X59920789Y-30900575D01*
X59920790Y-30900574D01*
X59976843Y-30868212D01*
X59976844Y-30868211D01*
X60057716Y-30821520D01*
X60169520Y-30709716D01*
X60169520Y-30709714D01*
X60179723Y-30699512D01*
X60179727Y-30699506D01*
X60322581Y-30556652D01*
X60383902Y-30523169D01*
X60413495Y-30520748D01*
X60413495Y-30520500D01*
X60416527Y-30520500D01*
X60416576Y-30520496D01*
X60416649Y-30520499D01*
X60416652Y-30520500D01*
X60416654Y-30520500D01*
X61003343Y-30520500D01*
X61003348Y-30520500D01*
X61105275Y-30510087D01*
X61270425Y-30455362D01*
X61418503Y-30364026D01*
X61541526Y-30241003D01*
X61632862Y-30092925D01*
X61687587Y-29927775D01*
X61698000Y-29825848D01*
X61698000Y-28814152D01*
X61687587Y-28712225D01*
X61632862Y-28547075D01*
X61632858Y-28547069D01*
X61632857Y-28547066D01*
X61541528Y-28399000D01*
X61541525Y-28398996D01*
X61418503Y-28275974D01*
X61418499Y-28275971D01*
X61270433Y-28184642D01*
X61270427Y-28184639D01*
X61270425Y-28184638D01*
X61230198Y-28171308D01*
X61105276Y-28129913D01*
X61003355Y-28119500D01*
X61003348Y-28119500D01*
X60416652Y-28119500D01*
X60416644Y-28119500D01*
X60314723Y-28129913D01*
X60149577Y-28184637D01*
X60149566Y-28184642D01*
X60001500Y-28275971D01*
X60001496Y-28275974D01*
X59878474Y-28398996D01*
X59878471Y-28399000D01*
X59878038Y-28399703D01*
X59877614Y-28400083D01*
X59873993Y-28404664D01*
X59873210Y-28404045D01*
X59826090Y-28446428D01*
X59757128Y-28457649D01*
X59693046Y-28429806D01*
X59671157Y-28404544D01*
X59671007Y-28404664D01*
X59668359Y-28401315D01*
X59666962Y-28399703D01*
X59666528Y-28399000D01*
X59666525Y-28398996D01*
X59543503Y-28275974D01*
X59543499Y-28275971D01*
X59395433Y-28184642D01*
X59395427Y-28184639D01*
X59395425Y-28184638D01*
X59355198Y-28171308D01*
X59230276Y-28129913D01*
X59128355Y-28119500D01*
X59128348Y-28119500D01*
X58541652Y-28119500D01*
X58541644Y-28119500D01*
X58439723Y-28129913D01*
X58274577Y-28184637D01*
X58274566Y-28184642D01*
X58120350Y-28279765D01*
X58119284Y-28278037D01*
X58063880Y-28300383D01*
X57995239Y-28287336D01*
X57986680Y-28282513D01*
X57860433Y-28204642D01*
X57860427Y-28204639D01*
X57860425Y-28204638D01*
X57800066Y-28184637D01*
X57695276Y-28149913D01*
X57593355Y-28139500D01*
X57593348Y-28139500D01*
X57032702Y-28139500D01*
X56965663Y-28119815D01*
X56919908Y-28067011D01*
X56909964Y-27997853D01*
X56938989Y-27934297D01*
X56958390Y-27916234D01*
X56997190Y-27887187D01*
X57083350Y-27772093D01*
X57083354Y-27772086D01*
X57133596Y-27637379D01*
X57133598Y-27637372D01*
X57139999Y-27577844D01*
X57140000Y-27577827D01*
X57140000Y-26980000D01*
X54740000Y-26980000D01*
X54740000Y-27577841D01*
X54744775Y-27622243D01*
X54741995Y-27637649D01*
X54744224Y-27653147D01*
X54735919Y-27671330D01*
X54732371Y-27691003D01*
X54721702Y-27702461D01*
X54715199Y-27716703D01*
X54698382Y-27727510D01*
X54684761Y-27742141D01*
X54668804Y-27746518D01*
X54656421Y-27754477D01*
X54621486Y-27759500D01*
X54604545Y-27759500D01*
X54572452Y-27755275D01*
X54468832Y-27727510D01*
X54435203Y-27718499D01*
X54277089Y-27718499D01*
X54269493Y-27718499D01*
X54269477Y-27718500D01*
X54263427Y-27718500D01*
X54196388Y-27698815D01*
X54150633Y-27646011D01*
X54140137Y-27581253D01*
X54140256Y-27580141D01*
X54140500Y-27577873D01*
X54140499Y-25882155D01*
X54740000Y-25882155D01*
X54740000Y-26480000D01*
X55690000Y-26480000D01*
X56190000Y-26480000D01*
X57140000Y-26480000D01*
X57140000Y-25882172D01*
X57139999Y-25882155D01*
X57133598Y-25822627D01*
X57133596Y-25822620D01*
X57083354Y-25687913D01*
X57083350Y-25687906D01*
X56997190Y-25572812D01*
X56997187Y-25572809D01*
X56882093Y-25486649D01*
X56882086Y-25486645D01*
X56747379Y-25436403D01*
X56747372Y-25436401D01*
X56687844Y-25430000D01*
X56190000Y-25430000D01*
X56190000Y-26480000D01*
X55690000Y-26480000D01*
X55690000Y-25430000D01*
X55192155Y-25430000D01*
X55132627Y-25436401D01*
X55132620Y-25436403D01*
X54997913Y-25486645D01*
X54997906Y-25486649D01*
X54882812Y-25572809D01*
X54882809Y-25572812D01*
X54796649Y-25687906D01*
X54796645Y-25687913D01*
X54746403Y-25822620D01*
X54746401Y-25822627D01*
X54740000Y-25882155D01*
X54140499Y-25882155D01*
X54140499Y-25882128D01*
X54134091Y-25822517D01*
X54114653Y-25770402D01*
X54083797Y-25687671D01*
X54083793Y-25687664D01*
X53997547Y-25572455D01*
X53997544Y-25572452D01*
X53882335Y-25486206D01*
X53882328Y-25486202D01*
X53747482Y-25435908D01*
X53747483Y-25435908D01*
X53687883Y-25429501D01*
X53687881Y-25429500D01*
X53687873Y-25429500D01*
X53687865Y-25429500D01*
X53684500Y-25429500D01*
X53617461Y-25409815D01*
X53571706Y-25357011D01*
X53560500Y-25305500D01*
X53560500Y-20954499D01*
X53580185Y-20887460D01*
X53632989Y-20841705D01*
X53684500Y-20830499D01*
X53687871Y-20830499D01*
X53687872Y-20830499D01*
X53747483Y-20824091D01*
X53882331Y-20773796D01*
X53997546Y-20687546D01*
X54083796Y-20572331D01*
X54134091Y-20437483D01*
X54140500Y-20377873D01*
X54140500Y-20377844D01*
X54740000Y-20377844D01*
X54746401Y-20437372D01*
X54746403Y-20437379D01*
X54796645Y-20572086D01*
X54796649Y-20572093D01*
X54882809Y-20687187D01*
X54882812Y-20687190D01*
X54997906Y-20773350D01*
X54997913Y-20773354D01*
X55132620Y-20823596D01*
X55132627Y-20823598D01*
X55192155Y-20829999D01*
X55192172Y-20830000D01*
X55690000Y-20830000D01*
X56190000Y-20830000D01*
X56687828Y-20830000D01*
X56687844Y-20829999D01*
X56747372Y-20823598D01*
X56747379Y-20823596D01*
X56882086Y-20773354D01*
X56882093Y-20773350D01*
X56997187Y-20687190D01*
X56997190Y-20687187D01*
X57083350Y-20572093D01*
X57083354Y-20572086D01*
X57133596Y-20437379D01*
X57133598Y-20437372D01*
X57139999Y-20377844D01*
X57140000Y-20377827D01*
X57140000Y-19780000D01*
X56190000Y-19780000D01*
X56190000Y-20830000D01*
X55690000Y-20830000D01*
X55690000Y-19780000D01*
X54740000Y-19780000D01*
X54740000Y-20377844D01*
X54140500Y-20377844D01*
X54140499Y-19529500D01*
X54140499Y-18794500D01*
X54160183Y-18727461D01*
X54212987Y-18681706D01*
X54264499Y-18670500D01*
X54616000Y-18670500D01*
X54683039Y-18690185D01*
X54728794Y-18742989D01*
X54740000Y-18794500D01*
X54740000Y-19280000D01*
X57140000Y-19280000D01*
X57140000Y-18794500D01*
X57159685Y-18727461D01*
X57212489Y-18681706D01*
X57264000Y-18670500D01*
X62590500Y-18670500D01*
X62657539Y-18690185D01*
X62703294Y-18742989D01*
X62714500Y-18794500D01*
X62714500Y-44555500D01*
X62694815Y-44622539D01*
X62642011Y-44668294D01*
X62590500Y-44679500D01*
X15649500Y-44679500D01*
X15582461Y-44659815D01*
X15536706Y-44607011D01*
X15525500Y-44555500D01*
X15525500Y-28959986D01*
X21207501Y-28959986D01*
X21217994Y-29062697D01*
X21273141Y-29229119D01*
X21273143Y-29229124D01*
X21365184Y-29378345D01*
X21489154Y-29502315D01*
X21638375Y-29594356D01*
X21638380Y-29594358D01*
X21804802Y-29649505D01*
X21804809Y-29649506D01*
X21907519Y-29659999D01*
X21969999Y-29659998D01*
X21970000Y-29659998D01*
X21970000Y-28710000D01*
X21207501Y-28710000D01*
X21207501Y-28959986D01*
X15525500Y-28959986D01*
X15525500Y-18794500D01*
X15545185Y-18727461D01*
X15597989Y-18681706D01*
X15649500Y-18670500D01*
X18566025Y-18670500D01*
X18633064Y-18690185D01*
G37*
%TD.AperFunction*%
%TA.AperFunction,Conductor*%
G36*
X41654482Y-35394105D02*
G01*
X41686805Y-35417381D01*
X43384181Y-37114757D01*
X43417666Y-37176080D01*
X43420500Y-37202438D01*
X43420500Y-39659742D01*
X43400815Y-39726781D01*
X43348011Y-39772536D01*
X43278853Y-39782480D01*
X43258182Y-39777673D01*
X43071247Y-39716934D01*
X43071248Y-39716934D01*
X42838052Y-39680000D01*
X42601948Y-39680000D01*
X42368752Y-39716934D01*
X42144197Y-39789897D01*
X41933830Y-39897084D01*
X41850894Y-39957340D01*
X42809096Y-40915542D01*
X42842581Y-40976865D01*
X42837597Y-41046557D01*
X42809096Y-41090904D01*
X42630904Y-41269096D01*
X42569581Y-41302581D01*
X42499889Y-41297597D01*
X42455542Y-41269096D01*
X41497340Y-40310894D01*
X41437084Y-40393830D01*
X41329897Y-40604197D01*
X41256934Y-40828752D01*
X41220000Y-41061947D01*
X41220000Y-41298052D01*
X41256934Y-41531247D01*
X41329897Y-41755802D01*
X41347426Y-41790205D01*
X41360322Y-41858875D01*
X41334046Y-41923615D01*
X41276939Y-41963872D01*
X41236941Y-41970500D01*
X40800784Y-41970500D01*
X40733745Y-41950815D01*
X40687990Y-41898011D01*
X40678046Y-41828853D01*
X40682851Y-41808187D01*
X40743553Y-41621368D01*
X40757827Y-41531247D01*
X40780500Y-41388097D01*
X40780500Y-41151902D01*
X40743553Y-40918631D01*
X40685512Y-40740000D01*
X40670568Y-40694008D01*
X40670566Y-40694005D01*
X40670566Y-40694003D01*
X40563342Y-40483566D01*
X40424517Y-40292490D01*
X40257510Y-40125483D01*
X40066433Y-39986657D01*
X40061318Y-39984051D01*
X39855996Y-39879433D01*
X39631368Y-39806446D01*
X39398097Y-39769500D01*
X39398092Y-39769500D01*
X39161908Y-39769500D01*
X39161903Y-39769500D01*
X38928631Y-39806446D01*
X38704003Y-39879433D01*
X38493566Y-39986657D01*
X38399859Y-40054740D01*
X38302490Y-40125483D01*
X38302488Y-40125485D01*
X38302487Y-40125485D01*
X38194792Y-40233181D01*
X38133469Y-40266666D01*
X38107111Y-40269500D01*
X37393282Y-40269500D01*
X37326243Y-40249815D01*
X37305601Y-40233181D01*
X36527567Y-39455147D01*
X36494082Y-39393824D01*
X36499066Y-39324132D01*
X36540938Y-39268199D01*
X36602647Y-39244108D01*
X36647696Y-39239506D01*
X36814119Y-39184358D01*
X36814124Y-39184356D01*
X36963345Y-39092315D01*
X37087315Y-38968345D01*
X37179356Y-38819124D01*
X37179358Y-38819119D01*
X37234505Y-38652697D01*
X37234506Y-38652690D01*
X37244999Y-38549986D01*
X37245000Y-38549973D01*
X37245000Y-38300000D01*
X36356500Y-38300000D01*
X36289461Y-38280315D01*
X36243706Y-38227511D01*
X36232500Y-38176000D01*
X36232500Y-37924000D01*
X36252185Y-37856961D01*
X36304989Y-37811206D01*
X36356500Y-37800000D01*
X37244999Y-37800000D01*
X37244999Y-37550028D01*
X37244998Y-37550013D01*
X37234505Y-37447301D01*
X37229072Y-37430905D01*
X37228302Y-37408536D01*
X37222881Y-37386816D01*
X37227123Y-37374290D01*
X37226669Y-37361077D01*
X37238114Y-37341842D01*
X37245297Y-37320640D01*
X37255637Y-37312396D01*
X37262399Y-37301035D01*
X37282426Y-37291042D01*
X37299932Y-37277088D01*
X37320866Y-37271862D01*
X37324919Y-37269841D01*
X37334176Y-37268541D01*
X37396818Y-37262142D01*
X37409419Y-37261500D01*
X39416887Y-37261500D01*
X39466114Y-37251707D01*
X39547499Y-37235519D01*
X39610180Y-37223051D01*
X39676203Y-37195703D01*
X39792258Y-37147632D01*
X39956126Y-37038139D01*
X40095483Y-36898782D01*
X40095483Y-36898780D01*
X40105691Y-36888573D01*
X40105692Y-36888570D01*
X40947754Y-36046509D01*
X40996427Y-36016487D01*
X41061834Y-35994814D01*
X41211156Y-35902712D01*
X41335212Y-35778656D01*
X41427314Y-35629334D01*
X41481418Y-35466056D01*
X41521191Y-35408613D01*
X41585706Y-35381790D01*
X41654482Y-35394105D01*
G37*
%TD.AperFunction*%
%TA.AperFunction,Conductor*%
G36*
X30103032Y-29819656D02*
G01*
X30151553Y-29849629D01*
X31126577Y-30824653D01*
X31160062Y-30885976D01*
X31155078Y-30955668D01*
X31113206Y-31011601D01*
X31086348Y-31026895D01*
X30980827Y-31070602D01*
X30980814Y-31070609D01*
X30849711Y-31158210D01*
X30849707Y-31158213D01*
X30738213Y-31269707D01*
X30738210Y-31269711D01*
X30650609Y-31400814D01*
X30650602Y-31400827D01*
X30590264Y-31546498D01*
X30590261Y-31546510D01*
X30559500Y-31701153D01*
X30559500Y-31858843D01*
X30564812Y-31885551D01*
X30558583Y-31955143D01*
X30515719Y-32010319D01*
X30449829Y-32033562D01*
X30419003Y-32031357D01*
X30258846Y-31999500D01*
X30258842Y-31999500D01*
X30101158Y-31999500D01*
X30101155Y-31999500D01*
X29946510Y-32030261D01*
X29946498Y-32030264D01*
X29800827Y-32090602D01*
X29800814Y-32090609D01*
X29669711Y-32178210D01*
X29669707Y-32178213D01*
X29558213Y-32289707D01*
X29558210Y-32289711D01*
X29470609Y-32420814D01*
X29470602Y-32420827D01*
X29410264Y-32566498D01*
X29410261Y-32566510D01*
X29379500Y-32721153D01*
X29379500Y-32878846D01*
X29410261Y-33033489D01*
X29410264Y-33033501D01*
X29470602Y-33179172D01*
X29470609Y-33179185D01*
X29558210Y-33310288D01*
X29558213Y-33310292D01*
X29669707Y-33421786D01*
X29669711Y-33421789D01*
X29800814Y-33509390D01*
X29800827Y-33509397D01*
X29946498Y-33569735D01*
X29946503Y-33569737D01*
X29990251Y-33578439D01*
X30101849Y-33600638D01*
X30163760Y-33633023D01*
X30165339Y-33634574D01*
X30389084Y-33858319D01*
X30422569Y-33919642D01*
X30417585Y-33989334D01*
X30375713Y-34045267D01*
X30310249Y-34069684D01*
X30301403Y-34070000D01*
X30092500Y-34070000D01*
X30092500Y-38170000D01*
X30995328Y-38170000D01*
X30995341Y-38169999D01*
X31054743Y-38163612D01*
X31123503Y-38176016D01*
X31174641Y-38223626D01*
X31190119Y-38279940D01*
X31191735Y-38279835D01*
X31192000Y-38283883D01*
X31206779Y-38396151D01*
X31206782Y-38396162D01*
X31264642Y-38535850D01*
X31264643Y-38535852D01*
X31264644Y-38535853D01*
X31356690Y-38655810D01*
X31476647Y-38747856D01*
X31616341Y-38805719D01*
X31728613Y-38820500D01*
X31849581Y-38820499D01*
X31916621Y-38840183D01*
X31918462Y-38841390D01*
X32023586Y-38911632D01*
X32023589Y-38911633D01*
X32023590Y-38911634D01*
X32160504Y-38968345D01*
X32205665Y-38987051D01*
X32205669Y-38987051D01*
X32205670Y-38987052D01*
X32398956Y-39025500D01*
X32398959Y-39025500D01*
X33355829Y-39025500D01*
X33370688Y-39029863D01*
X33386163Y-39029268D01*
X33403527Y-39039505D01*
X33422868Y-39045185D01*
X33433863Y-39057392D01*
X33446350Y-39064754D01*
X33461084Y-39087612D01*
X33466559Y-39093690D01*
X33468630Y-39097799D01*
X33520868Y-39223914D01*
X33566970Y-39292910D01*
X33570387Y-39299690D01*
X33575372Y-39326892D01*
X33583637Y-39353287D01*
X33581582Y-39360775D01*
X33582983Y-39368415D01*
X33572467Y-39393999D01*
X33565152Y-39420667D01*
X33559375Y-39425856D01*
X33556423Y-39433039D01*
X33533747Y-39448876D01*
X33513173Y-39467357D01*
X33504453Y-39469335D01*
X33499141Y-39473046D01*
X33485846Y-39473557D01*
X33459657Y-39479500D01*
X32942498Y-39479500D01*
X32942480Y-39479501D01*
X32839703Y-39490000D01*
X32839700Y-39490001D01*
X32673168Y-39545185D01*
X32673163Y-39545187D01*
X32523845Y-39637287D01*
X32429827Y-39731305D01*
X32368503Y-39764789D01*
X32298812Y-39759805D01*
X32254465Y-39731304D01*
X32160845Y-39637684D01*
X32011624Y-39545643D01*
X32011619Y-39545641D01*
X31845197Y-39490494D01*
X31845190Y-39490493D01*
X31742486Y-39480000D01*
X31680000Y-39480000D01*
X31680000Y-40556000D01*
X31660315Y-40623039D01*
X31607511Y-40668794D01*
X31556000Y-40680000D01*
X31304000Y-40680000D01*
X31236961Y-40660315D01*
X31191206Y-40607511D01*
X31180000Y-40556000D01*
X31180000Y-39480000D01*
X31179999Y-39479999D01*
X31117528Y-39480000D01*
X31117511Y-39480001D01*
X31014802Y-39490494D01*
X30881150Y-39534782D01*
X30876667Y-39534936D01*
X30872812Y-39537224D01*
X30842074Y-39536126D01*
X30811321Y-39537184D01*
X30807466Y-39534889D01*
X30802987Y-39534730D01*
X30777723Y-39517189D01*
X30751280Y-39501452D01*
X30748244Y-39496721D01*
X30745595Y-39494882D01*
X30727585Y-39464529D01*
X30695796Y-39387782D01*
X30681632Y-39353586D01*
X30663796Y-39326892D01*
X30572139Y-39189717D01*
X30429686Y-39047264D01*
X30429655Y-39047235D01*
X29628819Y-38246399D01*
X29595334Y-38185076D01*
X29592500Y-38158718D01*
X29592500Y-34070000D01*
X28689672Y-34070000D01*
X28630254Y-34076388D01*
X28561494Y-34063982D01*
X28510357Y-34016371D01*
X28494908Y-33960057D01*
X28493265Y-33960165D01*
X28492999Y-33956116D01*
X28478220Y-33843848D01*
X28478219Y-33843847D01*
X28478219Y-33843841D01*
X28420356Y-33704147D01*
X28328310Y-33584190D01*
X28328308Y-33584189D01*
X28328308Y-33584188D01*
X28201906Y-33487197D01*
X28203764Y-33484775D01*
X28165562Y-33444696D01*
X28152350Y-33376087D01*
X28170247Y-33322801D01*
X28224814Y-33234334D01*
X28279999Y-33067797D01*
X28290500Y-32965009D01*
X28290499Y-32339992D01*
X28286640Y-32302219D01*
X28279999Y-32237203D01*
X28279998Y-32237200D01*
X28273360Y-32217169D01*
X28224814Y-32070666D01*
X28132712Y-31921344D01*
X28039049Y-31827681D01*
X28037531Y-31824902D01*
X28034831Y-31823250D01*
X28020896Y-31794436D01*
X28005564Y-31766358D01*
X28005789Y-31763200D01*
X28004411Y-31760350D01*
X28008265Y-31728583D01*
X28010548Y-31696666D01*
X28012560Y-31693187D01*
X28012827Y-31690989D01*
X28019673Y-31680891D01*
X28031249Y-31660884D01*
X28034947Y-31656420D01*
X28132712Y-31558656D01*
X28181508Y-31479543D01*
X28187027Y-31472884D01*
X28209111Y-31457992D01*
X28228917Y-31440179D01*
X28238892Y-31437912D01*
X28244958Y-31433822D01*
X28258172Y-31433530D01*
X28282508Y-31428000D01*
X28655831Y-31428000D01*
X28655847Y-31428001D01*
X28663443Y-31428001D01*
X28821554Y-31428001D01*
X28821557Y-31428001D01*
X28974285Y-31387077D01*
X29024404Y-31358139D01*
X29111216Y-31308020D01*
X29223020Y-31196216D01*
X29223020Y-31196214D01*
X29233228Y-31186007D01*
X29233230Y-31186003D01*
X29244664Y-31174569D01*
X29305988Y-31141088D01*
X29308150Y-31140638D01*
X29366085Y-31129113D01*
X29463497Y-31109737D01*
X29609179Y-31049394D01*
X29740289Y-30961789D01*
X29851789Y-30850289D01*
X29939394Y-30719179D01*
X29999737Y-30573497D01*
X30030500Y-30418842D01*
X30030500Y-30261158D01*
X30030500Y-30261155D01*
X30030499Y-30261153D01*
X30024490Y-30230943D01*
X29999737Y-30106503D01*
X29988020Y-30078215D01*
X29949311Y-29984762D01*
X29941842Y-29915293D01*
X29973117Y-29852814D01*
X30033206Y-29817162D01*
X30103032Y-29819656D01*
G37*
%TD.AperFunction*%
%TA.AperFunction,Conductor*%
G36*
X36068219Y-34408633D02*
G01*
X36069647Y-34408428D01*
X36099449Y-34416604D01*
X36133379Y-34430658D01*
X36133383Y-34430658D01*
X36133384Y-34430659D01*
X36278371Y-34459500D01*
X36278374Y-34459500D01*
X36278375Y-34459500D01*
X36426209Y-34459500D01*
X37518500Y-34459500D01*
X37585539Y-34479185D01*
X37631294Y-34531989D01*
X37642500Y-34583500D01*
X37642500Y-34610000D01*
X38531000Y-34610000D01*
X38598039Y-34629685D01*
X38643794Y-34682489D01*
X38655000Y-34734000D01*
X38655000Y-34986000D01*
X38635315Y-35053039D01*
X38582511Y-35098794D01*
X38531000Y-35110000D01*
X37867730Y-35110000D01*
X37800691Y-35090315D01*
X37780049Y-35073681D01*
X37733657Y-35027289D01*
X37733656Y-35027288D01*
X37584334Y-34935186D01*
X37417797Y-34880001D01*
X37417795Y-34880000D01*
X37315010Y-34869500D01*
X36689998Y-34869500D01*
X36689980Y-34869501D01*
X36587203Y-34880000D01*
X36587200Y-34880001D01*
X36420668Y-34935185D01*
X36420663Y-34935187D01*
X36271342Y-35027289D01*
X36177681Y-35120951D01*
X36116358Y-35154436D01*
X36046666Y-35149452D01*
X36002319Y-35120951D01*
X35964319Y-35082951D01*
X35930834Y-35021628D01*
X35928000Y-34995270D01*
X35928000Y-34531166D01*
X35937243Y-34499685D01*
X35945359Y-34467892D01*
X35947038Y-34466328D01*
X35947685Y-34464127D01*
X35972473Y-34442647D01*
X35996496Y-34420282D01*
X35998755Y-34419874D01*
X36000489Y-34418372D01*
X36032971Y-34413701D01*
X36065256Y-34407877D01*
X36068219Y-34408633D01*
G37*
%TD.AperFunction*%
%TA.AperFunction,Conductor*%
G36*
X32760539Y-27169685D02*
G01*
X32806294Y-27222489D01*
X32817500Y-27274000D01*
X32817500Y-27547990D01*
X32797815Y-27615029D01*
X32796603Y-27616880D01*
X32780608Y-27640817D01*
X32780602Y-27640828D01*
X32720264Y-27786498D01*
X32720261Y-27786510D01*
X32689500Y-27941153D01*
X32689500Y-28098846D01*
X32720261Y-28253489D01*
X32720264Y-28253501D01*
X32780602Y-28399172D01*
X32780609Y-28399185D01*
X32868210Y-28530288D01*
X32868213Y-28530292D01*
X32979707Y-28641786D01*
X32979711Y-28641789D01*
X33110814Y-28729390D01*
X33110827Y-28729397D01*
X33256498Y-28789735D01*
X33256503Y-28789737D01*
X33379245Y-28814152D01*
X33411153Y-28820499D01*
X33411156Y-28820500D01*
X33411158Y-28820500D01*
X33568844Y-28820500D01*
X33568845Y-28820499D01*
X33723497Y-28789737D01*
X33836166Y-28743067D01*
X33869172Y-28729397D01*
X33869172Y-28729396D01*
X33869179Y-28729394D01*
X34000289Y-28641789D01*
X34111789Y-28530289D01*
X34191974Y-28410284D01*
X34195098Y-28405609D01*
X34248710Y-28360803D01*
X34298200Y-28350499D01*
X34705002Y-28350499D01*
X34705008Y-28350499D01*
X34807797Y-28339999D01*
X34974334Y-28284814D01*
X35123656Y-28192712D01*
X35123658Y-28192709D01*
X35128460Y-28189748D01*
X35195853Y-28171308D01*
X35262516Y-28192231D01*
X35281238Y-28207606D01*
X35306344Y-28232712D01*
X35455666Y-28324814D01*
X35622203Y-28379999D01*
X35724991Y-28390500D01*
X35990903Y-28390499D01*
X36057941Y-28410183D01*
X36103696Y-28462987D01*
X36113640Y-28532146D01*
X36084615Y-28595701D01*
X36078583Y-28602180D01*
X34851286Y-29829478D01*
X34739481Y-29941282D01*
X34739475Y-29941290D01*
X34702405Y-30005499D01*
X34702405Y-30005501D01*
X34660423Y-30078214D01*
X34657427Y-30089397D01*
X34619499Y-30230943D01*
X34619499Y-30230945D01*
X34619499Y-30399046D01*
X34619500Y-30399059D01*
X34619500Y-30615478D01*
X34599815Y-30682517D01*
X34547011Y-30728272D01*
X34477853Y-30738216D01*
X34414297Y-30709191D01*
X34407819Y-30703159D01*
X32390819Y-28686159D01*
X32357334Y-28624836D01*
X32354500Y-28598478D01*
X32354500Y-27274000D01*
X32374185Y-27206961D01*
X32426989Y-27161206D01*
X32478500Y-27150000D01*
X32693500Y-27150000D01*
X32760539Y-27169685D01*
G37*
%TD.AperFunction*%
%TA.AperFunction,Conductor*%
G36*
X29663200Y-18690185D02*
G01*
X29708955Y-18742989D01*
X29718899Y-18812147D01*
X29689874Y-18875703D01*
X29665052Y-18897602D01*
X29584092Y-18951697D01*
X29584088Y-18951700D01*
X29451700Y-19084088D01*
X29451697Y-19084092D01*
X29347681Y-19239762D01*
X29347676Y-19239771D01*
X29276027Y-19412748D01*
X29276025Y-19412756D01*
X29239500Y-19596379D01*
X29239500Y-20583620D01*
X29276025Y-20767243D01*
X29276027Y-20767251D01*
X29347676Y-20940228D01*
X29347681Y-20940237D01*
X29451696Y-21095906D01*
X29451697Y-21095907D01*
X29451698Y-21095908D01*
X29553182Y-21197392D01*
X29586666Y-21258713D01*
X29589500Y-21285072D01*
X29589500Y-21924927D01*
X29569815Y-21991966D01*
X29553181Y-22012608D01*
X29451700Y-22114088D01*
X29451697Y-22114092D01*
X29347681Y-22269762D01*
X29347676Y-22269771D01*
X29276027Y-22442748D01*
X29276025Y-22442756D01*
X29239500Y-22626379D01*
X29239500Y-24313620D01*
X29276025Y-24497243D01*
X29276027Y-24497251D01*
X29347676Y-24670228D01*
X29347681Y-24670237D01*
X29451697Y-24825907D01*
X29451700Y-24825911D01*
X29584088Y-24958299D01*
X29584092Y-24958302D01*
X29739762Y-25062318D01*
X29739768Y-25062321D01*
X29739769Y-25062322D01*
X29912749Y-25133973D01*
X30038318Y-25158950D01*
X30096379Y-25170499D01*
X30096383Y-25170500D01*
X30096384Y-25170500D01*
X30283617Y-25170500D01*
X30283618Y-25170499D01*
X30467251Y-25133973D01*
X30640231Y-25062322D01*
X30795908Y-24958302D01*
X30928302Y-24825908D01*
X31032322Y-24670231D01*
X31069630Y-24580160D01*
X31096506Y-24539938D01*
X31186445Y-24449999D01*
X31172362Y-24435916D01*
X31138877Y-24374593D01*
X31138426Y-24324041D01*
X31140500Y-24313615D01*
X31140500Y-23996309D01*
X31160185Y-23929270D01*
X31212989Y-23883515D01*
X31282147Y-23873571D01*
X31345703Y-23902596D01*
X31352181Y-23908628D01*
X31537476Y-24093922D01*
X31570961Y-24155245D01*
X31571412Y-24205794D01*
X31562619Y-24250000D01*
X31500218Y-24250000D01*
X31426709Y-24280448D01*
X31370448Y-24336709D01*
X31340000Y-24410218D01*
X31340000Y-24489782D01*
X31370448Y-24563291D01*
X31426709Y-24619552D01*
X31500218Y-24650000D01*
X31562619Y-24650000D01*
X31571412Y-24694204D01*
X31565185Y-24763796D01*
X31537476Y-24806076D01*
X31139437Y-25204114D01*
X31292063Y-25267334D01*
X31386442Y-25286107D01*
X31448354Y-25318492D01*
X31482928Y-25379208D01*
X31479189Y-25448977D01*
X31449933Y-25495406D01*
X31021048Y-25924291D01*
X31004205Y-25949500D01*
X30977478Y-25989501D01*
X30959747Y-26016037D01*
X30938916Y-26047212D01*
X30938912Y-26047219D01*
X30882343Y-26183790D01*
X30882340Y-26183800D01*
X30853500Y-26328787D01*
X30853500Y-28129477D01*
X30833815Y-28196516D01*
X30781011Y-28242271D01*
X30711853Y-28252215D01*
X30648297Y-28223190D01*
X30641819Y-28217158D01*
X28190743Y-25766082D01*
X28190720Y-25766061D01*
X27920065Y-25495406D01*
X27833783Y-25409123D01*
X27800299Y-25347802D01*
X27805283Y-25278110D01*
X27847155Y-25222177D01*
X27897274Y-25199827D01*
X27924975Y-25194316D01*
X28027251Y-25173973D01*
X28200231Y-25102322D01*
X28355908Y-24998302D01*
X28488302Y-24865908D01*
X28592322Y-24710231D01*
X28663973Y-24537251D01*
X28700500Y-24353616D01*
X28700500Y-22666384D01*
X28663973Y-22482749D01*
X28602607Y-22334600D01*
X28592323Y-22309771D01*
X28592318Y-22309762D01*
X28488301Y-22154090D01*
X28386819Y-22052608D01*
X28353334Y-21991285D01*
X28350500Y-21964927D01*
X28350500Y-21325072D01*
X28370185Y-21258033D01*
X28386814Y-21237395D01*
X28488302Y-21135908D01*
X28592322Y-20980231D01*
X28663973Y-20807251D01*
X28700500Y-20623616D01*
X28700500Y-19636384D01*
X28663973Y-19452749D01*
X28592322Y-19279769D01*
X28592321Y-19279768D01*
X28592318Y-19279762D01*
X28488302Y-19124092D01*
X28488299Y-19124088D01*
X28355911Y-18991700D01*
X28355907Y-18991697D01*
X28215084Y-18897602D01*
X28170279Y-18843990D01*
X28161572Y-18774665D01*
X28191726Y-18711637D01*
X28251169Y-18674918D01*
X28283975Y-18670500D01*
X29596161Y-18670500D01*
X29663200Y-18690185D01*
G37*
%TD.AperFunction*%
%TA.AperFunction,Conductor*%
G36*
X51682539Y-18690185D02*
G01*
X51728294Y-18742989D01*
X51739500Y-18794500D01*
X51739500Y-20377870D01*
X51739501Y-20377876D01*
X51745908Y-20437483D01*
X51796202Y-20572328D01*
X51796206Y-20572335D01*
X51882452Y-20687544D01*
X51882455Y-20687547D01*
X51997664Y-20773793D01*
X51997671Y-20773797D01*
X52042618Y-20790561D01*
X52132517Y-20824091D01*
X52192127Y-20830500D01*
X52235499Y-20830499D01*
X52302537Y-20850182D01*
X52348293Y-20902985D01*
X52359500Y-20954499D01*
X52359500Y-25175500D01*
X52339815Y-25242539D01*
X52287011Y-25288294D01*
X52235500Y-25299500D01*
X42439766Y-25299500D01*
X42372727Y-25279815D01*
X42370875Y-25278602D01*
X42239185Y-25190609D01*
X42239172Y-25190602D01*
X42162755Y-25158950D01*
X42108351Y-25115110D01*
X42086286Y-25048815D01*
X42103565Y-24981116D01*
X42122526Y-24956708D01*
X42139444Y-24939791D01*
X42554917Y-24524319D01*
X42616240Y-24490834D01*
X42642598Y-24488000D01*
X47680150Y-24488000D01*
X47747189Y-24507685D01*
X47785688Y-24546903D01*
X47815971Y-24595999D01*
X47815974Y-24596003D01*
X47938996Y-24719025D01*
X47939000Y-24719028D01*
X48087066Y-24810357D01*
X48087069Y-24810358D01*
X48087075Y-24810362D01*
X48252225Y-24865087D01*
X48354152Y-24875500D01*
X48354157Y-24875500D01*
X49365843Y-24875500D01*
X49365848Y-24875500D01*
X49467775Y-24865087D01*
X49632925Y-24810362D01*
X49781003Y-24719026D01*
X49904026Y-24596003D01*
X49995362Y-24447925D01*
X50050087Y-24282775D01*
X50060500Y-24180848D01*
X50060500Y-23594152D01*
X50050087Y-23492225D01*
X49995362Y-23327075D01*
X49995358Y-23327069D01*
X49995357Y-23327066D01*
X49904028Y-23179000D01*
X49904025Y-23178996D01*
X49781003Y-23055974D01*
X49780995Y-23055968D01*
X49779812Y-23055238D01*
X49779171Y-23054525D01*
X49775336Y-23051493D01*
X49775854Y-23050837D01*
X49733091Y-23003287D01*
X49721875Y-22934323D01*
X49749723Y-22870243D01*
X49775123Y-22848238D01*
X49775023Y-22848112D01*
X49777842Y-22845882D01*
X49779832Y-22844159D01*
X49780692Y-22843628D01*
X49903629Y-22720691D01*
X49994903Y-22572714D01*
X49994905Y-22572709D01*
X50049592Y-22407673D01*
X50059999Y-22305815D01*
X50060000Y-22305802D01*
X50060000Y-22262500D01*
X47660000Y-22262500D01*
X47660000Y-22305815D01*
X47670407Y-22407673D01*
X47725094Y-22572709D01*
X47725096Y-22572714D01*
X47816370Y-22720691D01*
X47939309Y-22843630D01*
X47940173Y-22844163D01*
X47940641Y-22844683D01*
X47944977Y-22848112D01*
X47944391Y-22848852D01*
X47986901Y-22896108D01*
X47998126Y-22965070D01*
X47970286Y-23029154D01*
X47944601Y-23051414D01*
X47944664Y-23051493D01*
X47942912Y-23052878D01*
X47940194Y-23055234D01*
X47939005Y-23055967D01*
X47938996Y-23055974D01*
X47815974Y-23178996D01*
X47815971Y-23179000D01*
X47785688Y-23228097D01*
X47733740Y-23274822D01*
X47680150Y-23287000D01*
X42429170Y-23287000D01*
X42429154Y-23286999D01*
X42421558Y-23286999D01*
X42263443Y-23286999D01*
X42214924Y-23300000D01*
X42110714Y-23327923D01*
X42110709Y-23327926D01*
X41973790Y-23406975D01*
X41973782Y-23406981D01*
X39375339Y-26005425D01*
X39314016Y-26038910D01*
X39311850Y-26039361D01*
X39156508Y-26070261D01*
X39156498Y-26070264D01*
X39010827Y-26130602D01*
X39010814Y-26130609D01*
X38879711Y-26218210D01*
X38879707Y-26218213D01*
X38859472Y-26238449D01*
X38798149Y-26271934D01*
X38728457Y-26266950D01*
X38684110Y-26238449D01*
X38593345Y-26147684D01*
X38444124Y-26055643D01*
X38444119Y-26055641D01*
X38277697Y-26000494D01*
X38277690Y-26000493D01*
X38174986Y-25990000D01*
X38112500Y-25990000D01*
X38112500Y-27066000D01*
X38092815Y-27133039D01*
X38040011Y-27178794D01*
X37988500Y-27190000D01*
X37736500Y-27190000D01*
X37669461Y-27170315D01*
X37623706Y-27117511D01*
X37612500Y-27066000D01*
X37612500Y-25990000D01*
X37612499Y-25989999D01*
X37550028Y-25990000D01*
X37550011Y-25990001D01*
X37447302Y-26000494D01*
X37280880Y-26055641D01*
X37280875Y-26055643D01*
X37131657Y-26147682D01*
X37038034Y-26241305D01*
X36976710Y-26274789D01*
X36907019Y-26269805D01*
X36862672Y-26241304D01*
X36768657Y-26147289D01*
X36768656Y-26147288D01*
X36675888Y-26090069D01*
X36619336Y-26055187D01*
X36619331Y-26055185D01*
X36569039Y-26038520D01*
X36475495Y-26007522D01*
X36418051Y-25967750D01*
X36391228Y-25903234D01*
X36390500Y-25889817D01*
X36390500Y-25418628D01*
X36410185Y-25351589D01*
X36462989Y-25305834D01*
X36532147Y-25295890D01*
X36538695Y-25297011D01*
X36556231Y-25300499D01*
X36556232Y-25300500D01*
X36556233Y-25300500D01*
X36723768Y-25300500D01*
X36723769Y-25300499D01*
X36888082Y-25267816D01*
X37018203Y-25213917D01*
X37087667Y-25206449D01*
X37113105Y-25213918D01*
X37242063Y-25267334D01*
X37242071Y-25267336D01*
X37406277Y-25299999D01*
X37406280Y-25300000D01*
X37573720Y-25300000D01*
X37573722Y-25299999D01*
X37737928Y-25267336D01*
X37737936Y-25267334D01*
X37890561Y-25204114D01*
X37492523Y-24806077D01*
X37459038Y-24744754D01*
X37458587Y-24694205D01*
X37458587Y-24694204D01*
X37467380Y-24650000D01*
X37529782Y-24650000D01*
X37603291Y-24619552D01*
X37659552Y-24563291D01*
X37690000Y-24489782D01*
X37690000Y-24410218D01*
X37659552Y-24336709D01*
X37603291Y-24280448D01*
X37529782Y-24250000D01*
X37467380Y-24250000D01*
X37458587Y-24205794D01*
X37464814Y-24136203D01*
X37492523Y-24093922D01*
X37677819Y-23908627D01*
X37739142Y-23875142D01*
X37808834Y-23880126D01*
X37864767Y-23921998D01*
X37889184Y-23987462D01*
X37889500Y-23996308D01*
X37889500Y-24313619D01*
X37891574Y-24324047D01*
X37885344Y-24393638D01*
X37857638Y-24435914D01*
X37843553Y-24449999D01*
X37933492Y-24539938D01*
X37960372Y-24580167D01*
X37997676Y-24670227D01*
X37997681Y-24670237D01*
X38101697Y-24825907D01*
X38101700Y-24825911D01*
X38234088Y-24958299D01*
X38234092Y-24958302D01*
X38389762Y-25062318D01*
X38389768Y-25062321D01*
X38389769Y-25062322D01*
X38562749Y-25133973D01*
X38688318Y-25158950D01*
X38746379Y-25170499D01*
X38746383Y-25170500D01*
X38746384Y-25170500D01*
X38933617Y-25170500D01*
X38933618Y-25170499D01*
X39117251Y-25133973D01*
X39290231Y-25062322D01*
X39445908Y-24958302D01*
X39578302Y-24825908D01*
X39682322Y-24670231D01*
X39753973Y-24497251D01*
X39790500Y-24313616D01*
X39790500Y-22626384D01*
X39753973Y-22442749D01*
X39697247Y-22305802D01*
X39682323Y-22269771D01*
X39682318Y-22269762D01*
X39578302Y-22114092D01*
X39578299Y-22114088D01*
X39445911Y-21981700D01*
X39445907Y-21981697D01*
X39290237Y-21877681D01*
X39290228Y-21877676D01*
X39202228Y-21841226D01*
X39117251Y-21806027D01*
X39117243Y-21806025D01*
X38933620Y-21769500D01*
X38933616Y-21769500D01*
X38746384Y-21769500D01*
X38746379Y-21769500D01*
X38562756Y-21806025D01*
X38562748Y-21806027D01*
X38389771Y-21877676D01*
X38389762Y-21877681D01*
X38234092Y-21981697D01*
X38234088Y-21981700D01*
X38101700Y-22114088D01*
X38101697Y-22114092D01*
X37994293Y-22274834D01*
X37993207Y-22274108D01*
X37948951Y-22319149D01*
X37880812Y-22334600D01*
X37841119Y-22325404D01*
X37737940Y-22282666D01*
X37737928Y-22282663D01*
X37573721Y-22250000D01*
X37406277Y-22250000D01*
X37250325Y-22281021D01*
X37180734Y-22274794D01*
X37138453Y-22247085D01*
X36610552Y-21719184D01*
X47660000Y-21719184D01*
X47660000Y-21762500D01*
X48610000Y-21762500D01*
X49110000Y-21762500D01*
X50060000Y-21762500D01*
X50060000Y-21719197D01*
X50059999Y-21719184D01*
X50049592Y-21617326D01*
X49994905Y-21452290D01*
X49994903Y-21452285D01*
X49903629Y-21304308D01*
X49780691Y-21181370D01*
X49632714Y-21090096D01*
X49632709Y-21090094D01*
X49467673Y-21035407D01*
X49365815Y-21025000D01*
X49110000Y-21025000D01*
X49110000Y-21762500D01*
X48610000Y-21762500D01*
X48610000Y-21025000D01*
X48354184Y-21025000D01*
X48252326Y-21035407D01*
X48087290Y-21090094D01*
X48087285Y-21090096D01*
X47939308Y-21181370D01*
X47816370Y-21304308D01*
X47725096Y-21452285D01*
X47725094Y-21452290D01*
X47670407Y-21617326D01*
X47660000Y-21719184D01*
X36610552Y-21719184D01*
X35793549Y-20902181D01*
X35760064Y-20840858D01*
X35765048Y-20771166D01*
X35806920Y-20715233D01*
X35872384Y-20690816D01*
X35881230Y-20690500D01*
X37811382Y-20690500D01*
X37878421Y-20710185D01*
X37924176Y-20762989D01*
X37925943Y-20767047D01*
X37926026Y-20767248D01*
X37926027Y-20767251D01*
X37942596Y-20807251D01*
X37997676Y-20940228D01*
X37997681Y-20940237D01*
X38101697Y-21095907D01*
X38101700Y-21095911D01*
X38234088Y-21228299D01*
X38234092Y-21228302D01*
X38389762Y-21332318D01*
X38389768Y-21332321D01*
X38389769Y-21332322D01*
X38562749Y-21403973D01*
X38746379Y-21440499D01*
X38746383Y-21440500D01*
X38746384Y-21440500D01*
X38933617Y-21440500D01*
X38933618Y-21440499D01*
X39117251Y-21403973D01*
X39290231Y-21332322D01*
X39445908Y-21228302D01*
X39578302Y-21095908D01*
X39682322Y-20940231D01*
X39753973Y-20767251D01*
X39790500Y-20583616D01*
X39790500Y-19596384D01*
X39753973Y-19412749D01*
X39682322Y-19239769D01*
X39682321Y-19239768D01*
X39682318Y-19239762D01*
X39578302Y-19084092D01*
X39578299Y-19084088D01*
X39445911Y-18951700D01*
X39445907Y-18951697D01*
X39364948Y-18897602D01*
X39320143Y-18843990D01*
X39311436Y-18774665D01*
X39341590Y-18711638D01*
X39401033Y-18674918D01*
X39433839Y-18670500D01*
X51615500Y-18670500D01*
X51682539Y-18690185D01*
G37*
%TD.AperFunction*%
%TA.AperFunction,Conductor*%
G36*
X34562450Y-25214188D02*
G01*
X34691918Y-25267816D01*
X34851206Y-25299500D01*
X34856228Y-25300499D01*
X34856232Y-25300500D01*
X34856233Y-25300500D01*
X35023768Y-25300500D01*
X35023768Y-25300499D01*
X35041308Y-25297011D01*
X35110900Y-25303238D01*
X35166077Y-25346100D01*
X35189322Y-25411990D01*
X35189500Y-25418628D01*
X35189500Y-25925726D01*
X35169815Y-25992765D01*
X35117011Y-26038520D01*
X35047853Y-26048464D01*
X35000406Y-26031266D01*
X34974343Y-26015191D01*
X34974338Y-26015188D01*
X34974334Y-26015186D01*
X34807797Y-25960001D01*
X34807795Y-25960000D01*
X34705010Y-25949500D01*
X34079998Y-25949500D01*
X34079980Y-25949501D01*
X33977203Y-25960000D01*
X33977200Y-25960001D01*
X33810668Y-26015185D01*
X33810663Y-26015187D01*
X33661345Y-26107287D01*
X33567327Y-26201305D01*
X33506003Y-26234789D01*
X33436312Y-26229805D01*
X33391965Y-26201304D01*
X33298345Y-26107684D01*
X33149762Y-26016037D01*
X33103038Y-25964089D01*
X33091816Y-25895126D01*
X33100296Y-25863050D01*
X33111658Y-25835621D01*
X33132535Y-25730668D01*
X33140500Y-25690628D01*
X33140500Y-25424500D01*
X33160185Y-25357461D01*
X33212989Y-25311706D01*
X33264500Y-25300500D01*
X33323768Y-25300500D01*
X33323769Y-25300499D01*
X33488082Y-25267816D01*
X33617548Y-25214188D01*
X33687016Y-25206720D01*
X33712450Y-25214188D01*
X33841918Y-25267816D01*
X34001206Y-25299500D01*
X34006228Y-25300499D01*
X34006232Y-25300500D01*
X34006233Y-25300500D01*
X34173768Y-25300500D01*
X34173769Y-25300499D01*
X34338082Y-25267816D01*
X34467548Y-25214188D01*
X34537016Y-25206720D01*
X34562450Y-25214188D01*
G37*
%TD.AperFunction*%
%TA.AperFunction,Conductor*%
G36*
X20255703Y-23942596D02*
G01*
X20262181Y-23948628D01*
X20447476Y-24133922D01*
X20480961Y-24195245D01*
X20481412Y-24245794D01*
X20472619Y-24290000D01*
X20410218Y-24290000D01*
X20336709Y-24320448D01*
X20280448Y-24376709D01*
X20250000Y-24450218D01*
X20250000Y-24529782D01*
X20280448Y-24603291D01*
X20288979Y-24611822D01*
X20229889Y-24607597D01*
X20185542Y-24579096D01*
X20082362Y-24475916D01*
X20048877Y-24414593D01*
X20048426Y-24364041D01*
X20050500Y-24353615D01*
X20050500Y-24036309D01*
X20070185Y-23969270D01*
X20122989Y-23923515D01*
X20192147Y-23913571D01*
X20255703Y-23942596D01*
G37*
%TD.AperFunction*%
%TA.AperFunction,Conductor*%
G36*
X26718834Y-23920126D02*
G01*
X26774767Y-23961998D01*
X26799184Y-24027462D01*
X26799500Y-24036308D01*
X26799500Y-24353616D01*
X26802070Y-24366540D01*
X26802470Y-24369096D01*
X26798239Y-24401293D01*
X26795344Y-24433638D01*
X26793650Y-24436222D01*
X26793368Y-24438371D01*
X26788361Y-24444292D01*
X26767639Y-24475914D01*
X26739374Y-24504180D01*
X26678051Y-24537666D01*
X26651691Y-24540500D01*
X26595561Y-24540500D01*
X26600000Y-24529782D01*
X26600000Y-24450218D01*
X26569552Y-24376709D01*
X26513291Y-24320448D01*
X26439782Y-24290000D01*
X26400500Y-24290000D01*
X26400500Y-24187308D01*
X26409144Y-24157867D01*
X26415668Y-24127881D01*
X26419422Y-24122865D01*
X26420185Y-24120269D01*
X26436819Y-24099627D01*
X26587819Y-23948627D01*
X26649142Y-23915142D01*
X26718834Y-23920126D01*
G37*
%TD.AperFunction*%
%TA.AperFunction,Conductor*%
G36*
X26620111Y-23022403D02*
G01*
X26664458Y-23050904D01*
X26763181Y-23149627D01*
X26796666Y-23210950D01*
X26799500Y-23237308D01*
X26799500Y-23593691D01*
X26779815Y-23660730D01*
X26727011Y-23706485D01*
X26657853Y-23716429D01*
X26594297Y-23687404D01*
X26587819Y-23681372D01*
X26436819Y-23530372D01*
X26403334Y-23469049D01*
X26400500Y-23442691D01*
X26400500Y-23340000D01*
X26439782Y-23340000D01*
X26513291Y-23309552D01*
X26569552Y-23253291D01*
X26600000Y-23179782D01*
X26600000Y-23100218D01*
X26569552Y-23026709D01*
X26561020Y-23018177D01*
X26620111Y-23022403D01*
G37*
%TD.AperFunction*%
%TA.AperFunction,Conductor*%
G36*
X20286876Y-23020280D02*
G01*
X20280448Y-23026709D01*
X20250000Y-23100218D01*
X20250000Y-23179782D01*
X20280448Y-23253291D01*
X20336709Y-23309552D01*
X20410218Y-23340000D01*
X20472619Y-23340000D01*
X20481412Y-23384204D01*
X20475185Y-23453796D01*
X20447476Y-23496076D01*
X20262181Y-23681372D01*
X20200858Y-23714857D01*
X20131167Y-23709873D01*
X20075233Y-23668002D01*
X20050816Y-23602537D01*
X20050500Y-23593691D01*
X20050500Y-23237308D01*
X20059144Y-23207867D01*
X20065668Y-23177881D01*
X20069422Y-23172865D01*
X20070185Y-23170269D01*
X20086819Y-23149627D01*
X20185542Y-23050904D01*
X20246865Y-23017419D01*
X20286876Y-23020280D01*
G37*
%TD.AperFunction*%
%TA.AperFunction,Conductor*%
G36*
X37710111Y-22982403D02*
G01*
X37754458Y-23010904D01*
X37853181Y-23109627D01*
X37886666Y-23170950D01*
X37889500Y-23197308D01*
X37889500Y-23553691D01*
X37869815Y-23620730D01*
X37817011Y-23666485D01*
X37747853Y-23676429D01*
X37684297Y-23647404D01*
X37677819Y-23641372D01*
X37492523Y-23456076D01*
X37489922Y-23451313D01*
X37485398Y-23448318D01*
X37473356Y-23420975D01*
X37459038Y-23394753D01*
X37458843Y-23388020D01*
X37457238Y-23384375D01*
X37458043Y-23360380D01*
X37457717Y-23349084D01*
X37458100Y-23346652D01*
X37467380Y-23300000D01*
X37529782Y-23300000D01*
X37603291Y-23269552D01*
X37659552Y-23213291D01*
X37690000Y-23139782D01*
X37690000Y-23060218D01*
X37659552Y-22986709D01*
X37651020Y-22978177D01*
X37710111Y-22982403D01*
G37*
%TD.AperFunction*%
%TA.AperFunction,Conductor*%
G36*
X31376876Y-22980280D02*
G01*
X31370448Y-22986709D01*
X31340000Y-23060218D01*
X31340000Y-23139782D01*
X31370448Y-23213291D01*
X31426709Y-23269552D01*
X31500218Y-23300000D01*
X31562619Y-23300000D01*
X31571412Y-23344204D01*
X31565185Y-23413796D01*
X31537476Y-23456076D01*
X31352181Y-23641372D01*
X31290858Y-23674857D01*
X31221167Y-23669873D01*
X31165233Y-23628002D01*
X31140816Y-23562537D01*
X31140500Y-23553691D01*
X31140500Y-23197308D01*
X31149144Y-23167867D01*
X31155668Y-23137881D01*
X31159422Y-23132865D01*
X31160185Y-23130269D01*
X31176819Y-23109627D01*
X31275542Y-23010904D01*
X31336865Y-22977419D01*
X31376876Y-22980280D01*
G37*
%TD.AperFunction*%
%TA.AperFunction,Conductor*%
G36*
X26788421Y-20750185D02*
G01*
X26834176Y-20802989D01*
X26835943Y-20807047D01*
X26836026Y-20807248D01*
X26836027Y-20807251D01*
X26853810Y-20850182D01*
X26907676Y-20980228D01*
X26907681Y-20980237D01*
X27011696Y-21135906D01*
X27011697Y-21135907D01*
X27011698Y-21135908D01*
X27113182Y-21237392D01*
X27146666Y-21298713D01*
X27149500Y-21325072D01*
X27149500Y-21964927D01*
X27129815Y-22031966D01*
X27113181Y-22052608D01*
X27011700Y-22154088D01*
X27011699Y-22154090D01*
X26904293Y-22314834D01*
X26903207Y-22314108D01*
X26858951Y-22359149D01*
X26790812Y-22374600D01*
X26751119Y-22365404D01*
X26647940Y-22322666D01*
X26647928Y-22322663D01*
X26483721Y-22290000D01*
X26316279Y-22290000D01*
X26152071Y-22322663D01*
X26152063Y-22322665D01*
X26023107Y-22376081D01*
X25953637Y-22383550D01*
X25928201Y-22376081D01*
X25798082Y-22322184D01*
X25798074Y-22322182D01*
X25633771Y-22289500D01*
X25633767Y-22289500D01*
X25466233Y-22289500D01*
X25466228Y-22289500D01*
X25301925Y-22322182D01*
X25301913Y-22322185D01*
X25172452Y-22375810D01*
X25102983Y-22383279D01*
X25077548Y-22375810D01*
X24948086Y-22322185D01*
X24948074Y-22322182D01*
X24783771Y-22289500D01*
X24783767Y-22289500D01*
X24616233Y-22289500D01*
X24616228Y-22289500D01*
X24451925Y-22322182D01*
X24451913Y-22322185D01*
X24322452Y-22375810D01*
X24252983Y-22383279D01*
X24227548Y-22375810D01*
X24098086Y-22322185D01*
X24098074Y-22322182D01*
X23933771Y-22289500D01*
X23933767Y-22289500D01*
X23766233Y-22289500D01*
X23766228Y-22289500D01*
X23601925Y-22322182D01*
X23601913Y-22322185D01*
X23472452Y-22375810D01*
X23402983Y-22383279D01*
X23377548Y-22375810D01*
X23248086Y-22322185D01*
X23248074Y-22322182D01*
X23083771Y-22289500D01*
X23083767Y-22289500D01*
X22916233Y-22289500D01*
X22916228Y-22289500D01*
X22751925Y-22322182D01*
X22751913Y-22322185D01*
X22622452Y-22375810D01*
X22552983Y-22383279D01*
X22527548Y-22375810D01*
X22398086Y-22322185D01*
X22398076Y-22322182D01*
X22252710Y-22293267D01*
X22190800Y-22260882D01*
X22189221Y-22259331D01*
X21577244Y-21647355D01*
X21577242Y-21647352D01*
X21458371Y-21528481D01*
X21458363Y-21528475D01*
X21340492Y-21460423D01*
X21340492Y-21460422D01*
X21340487Y-21460421D01*
X21326405Y-21452290D01*
X21321440Y-21449423D01*
X21283257Y-21439192D01*
X21168711Y-21408499D01*
X21010597Y-21408499D01*
X21003001Y-21408499D01*
X21002985Y-21408500D01*
X19865073Y-21408500D01*
X19798034Y-21388815D01*
X19752279Y-21336011D01*
X19742335Y-21266853D01*
X19771360Y-21203297D01*
X19777392Y-21196819D01*
X19838299Y-21135911D01*
X19838302Y-21135908D01*
X19942322Y-20980231D01*
X20013973Y-20807251D01*
X20013973Y-20807248D01*
X20014057Y-20807047D01*
X20057898Y-20752644D01*
X20124192Y-20730579D01*
X20128618Y-20730500D01*
X26721382Y-20730500D01*
X26788421Y-20750185D01*
G37*
%TD.AperFunction*%
%TD*%
M02*
