M48
; DRILL file KiCad 10.0.1 date 2026-05-10T18:07:16
; FORMAT={-:-/ absolute / metric / decimal}
; #@! TF.CreationDate,2026-05-10T18:07:16-04:00
; #@! TF.GenerationSoftware,Kicad,Pcbnew,10.0.1
; #@! TF.FileFunction,Plated,1,2,PTH
FMAT,2
METRIC
; #@! TA.AperFunction,Plated,PTH,ViaDrill
T1C0.300
; #@! TA.AperFunction,Plated,PTH,ComponentDrill
T2C0.400
; #@! TA.AperFunction,Plated,PTH,ComponentDrill
T3C0.600
%
G90
G05
T1
X18.73Y-28.03
X19.29Y-25.34
X21.87Y-26.27
X23.99Y-25.44
X28.7Y-28.9
X29.23Y-30.34
X30.18Y-32.8
X31.3Y-25.44
X31.36Y-31.78
X31.62Y-32.8
X33.25Y-39.29
X33.49Y-28.02
X33.85Y-43.62
X33.86Y-25.73
X34.23Y-22.02
X35.22Y-31.49
X37.332Y-29.38
X39.368Y-30.381
X39.39Y-26.84
X41.86Y-25.9
X42.2Y-38.42
X48.41Y-39.71
T2
X20.45Y-23.14
X20.45Y-24.49
X21.3Y-23.14
X21.3Y-24.49
X22.15Y-23.14
X22.15Y-24.49
X23.0Y-23.14
X23.0Y-24.49
X23.85Y-23.14
X23.85Y-24.49
X24.7Y-23.14
X24.7Y-24.49
X25.55Y-23.14
X25.55Y-24.49
X26.4Y-23.14
X26.4Y-24.49
X31.54Y-23.1
X31.54Y-24.45
X32.39Y-23.1
X32.39Y-24.45
X33.24Y-23.1
X33.24Y-24.45
X34.09Y-23.1
X34.09Y-24.45
X34.94Y-23.1
X34.94Y-24.45
X35.79Y-23.1
X35.79Y-24.45
X36.64Y-23.1
X36.64Y-24.45
X37.49Y-23.1
X37.49Y-24.45
T3
G00X19.1Y-20.53
M15
G01X19.1Y-19.73
M16
G05
G00X19.1Y-24.26
M15
G01X19.1Y-22.76
M16
G05
G00X27.75Y-20.53
M15
G01X27.75Y-19.73
M16
G05
G00X27.75Y-24.26
M15
G01X27.75Y-22.76
M16
G05
G00X30.19Y-20.49
M15
G01X30.19Y-19.69
M16
G05
G00X30.19Y-24.22
M15
G01X30.19Y-22.72
M16
G05
G00X38.84Y-20.49
M15
G01X38.84Y-19.69
M16
G05
G00X38.84Y-24.22
M15
G01X38.84Y-22.72
M16
G05
M30
