%TF.GenerationSoftware,KiCad,Pcbnew,10.0.1*%
%TF.CreationDate,2026-05-10T18:07:13-04:00*%
%TF.ProjectId,Powerbank,506f7765-7262-4616-9e6b-2e6b69636164,rev?*%
%TF.SameCoordinates,Original*%
%TF.FileFunction,Copper,L2,Bot*%
%TF.FilePolarity,Positive*%
%FSLAX46Y46*%
G04 Gerber Fmt 4.6, Leading zero omitted, Abs format (unit mm)*
G04 Created by KiCad (PCBNEW 10.0.1) date 2026-05-10 18:07:13*
%MOMM*%
%LPD*%
G01*
G04 APERTURE LIST*
%TA.AperFunction,ComponentPad*%
%ADD10C,0.700000*%
%TD*%
%TA.AperFunction,ComponentPad*%
%ADD11O,0.900000X2.400000*%
%TD*%
%TA.AperFunction,ComponentPad*%
%ADD12O,0.900000X1.700000*%
%TD*%
%TA.AperFunction,ViaPad*%
%ADD13C,0.600000*%
%TD*%
%TA.AperFunction,Conductor*%
%ADD14C,0.200000*%
%TD*%
%TA.AperFunction,Conductor*%
%ADD15C,1.000000*%
%TD*%
G04 APERTURE END LIST*
D10*
%TO.P,J2,A1,GND*%
%TO.N,GNDREF*%
X26400000Y-24490000D03*
%TO.P,J2,A4,VBUS*%
%TO.N,+5V*%
X25550000Y-24490000D03*
%TO.P,J2,A5,CC1*%
%TO.N,Net-(J2-CC1)*%
X24700000Y-24490000D03*
%TO.P,J2,A6,D+*%
%TO.N,unconnected-(J2-D+-PadA6)*%
X23850000Y-24490000D03*
%TO.P,J2,A7,D-*%
%TO.N,unconnected-(J2-D--PadA7)*%
X23000000Y-24490000D03*
%TO.P,J2,A8*%
%TO.N,N/C*%
X22150000Y-24490000D03*
%TO.P,J2,A9,VBUS*%
%TO.N,+5V*%
X21300000Y-24490000D03*
%TO.P,J2,A12,GND*%
%TO.N,GNDREF*%
X20450000Y-24490000D03*
%TO.P,J2,B1,GND*%
X20450000Y-23140000D03*
%TO.P,J2,B4,VBUS*%
%TO.N,+5V*%
X21300000Y-23140000D03*
%TO.P,J2,B5,CC2*%
%TO.N,Net-(J2-CC2)*%
X22150000Y-23140000D03*
%TO.P,J2,B6,D+*%
%TO.N,unconnected-(J2-D+-PadB6)*%
X23000000Y-23140000D03*
%TO.P,J2,B7,D-*%
%TO.N,unconnected-(J2-D--PadB7)*%
X23850000Y-23140000D03*
%TO.P,J2,B8*%
%TO.N,N/C*%
X24700000Y-23140000D03*
%TO.P,J2,B9,VBUS*%
%TO.N,+5V*%
X25550000Y-23140000D03*
%TO.P,J2,B12,GND*%
%TO.N,GNDREF*%
X26400000Y-23140000D03*
D11*
%TO.P,J2,S1,SHIELD*%
%TO.N,unconnected-(J2-SHIELD-PadS1)*%
X27750000Y-23510000D03*
D12*
X27750000Y-20130000D03*
D11*
X19100000Y-23510000D03*
D12*
X19100000Y-20130000D03*
%TD*%
D10*
%TO.P,J1,A1,GND*%
%TO.N,GNDREF*%
X37490000Y-24450000D03*
%TO.P,J1,A4,VBUS*%
%TO.N,Net-(U1-VOUT)*%
X36640000Y-24450000D03*
%TO.P,J1,A5,CC1*%
%TO.N,Net-(J1-CC1)*%
X35790000Y-24450000D03*
%TO.P,J1,A6,D+*%
%TO.N,Net-(J1-D+-PadA6)*%
X34940000Y-24450000D03*
%TO.P,J1,A7,D-*%
X34090000Y-24450000D03*
%TO.P,J1,A8*%
%TO.N,N/C*%
X33240000Y-24450000D03*
%TO.P,J1,A9,VBUS*%
%TO.N,Net-(U1-VOUT)*%
X32390000Y-24450000D03*
%TO.P,J1,A12,GND*%
%TO.N,GNDREF*%
X31540000Y-24450000D03*
%TO.P,J1,B1,GND*%
X31540000Y-23100000D03*
%TO.P,J1,B4,VBUS*%
%TO.N,Net-(U1-VOUT)*%
X32390000Y-23100000D03*
%TO.P,J1,B5,CC2*%
%TO.N,Net-(J1-CC2)*%
X33240000Y-23100000D03*
%TO.P,J1,B6,D+*%
%TO.N,Net-(J1-D+-PadA6)*%
X34090000Y-23100000D03*
%TO.P,J1,B7,D-*%
X34940000Y-23100000D03*
%TO.P,J1,B8*%
%TO.N,N/C*%
X35790000Y-23100000D03*
%TO.P,J1,B9,VBUS*%
%TO.N,Net-(U1-VOUT)*%
X36640000Y-23100000D03*
%TO.P,J1,B12,GND*%
%TO.N,GNDREF*%
X37490000Y-23100000D03*
D11*
%TO.P,J1,S1,SHIELD*%
%TO.N,unconnected-(J1-SHIELD-PadS1)*%
X38840000Y-23470000D03*
D12*
X38840000Y-20090000D03*
D11*
X30190000Y-23470000D03*
D12*
X30190000Y-20090000D03*
%TD*%
D13*
%TO.N,GNDREF*%
X42200000Y-38420000D03*
X48410000Y-39710000D03*
X33850000Y-43620000D03*
X33250000Y-39290000D03*
X31300000Y-25440000D03*
X33860000Y-25730000D03*
%TO.N,Net-(D1-A)*%
X29230000Y-30340000D03*
X39390000Y-26840000D03*
%TO.N,Net-(D2-A)*%
X39367840Y-30381000D03*
X31360000Y-31780000D03*
%TO.N,Net-(D2-K)*%
X30180000Y-32800000D03*
X37332500Y-29380000D03*
%TO.N,Net-(D4-A)*%
X31620000Y-32800000D03*
X35220000Y-31490000D03*
%TO.N,Net-(R4-Pad1)*%
X41860000Y-25900000D03*
X28700000Y-28900000D03*
%TO.N,Net-(J1-CC2)*%
X34230000Y-22020000D03*
X33490000Y-28020000D03*
%TO.N,Net-(J2-CC1)*%
X18730000Y-28030000D03*
X23990000Y-25440000D03*
%TO.N,Net-(J2-CC2)*%
X21870000Y-26270000D03*
X19290000Y-25340000D03*
%TD*%
%TO.N,*%
D14*
X51370000Y-24070000D02*
X51340000Y-24070000D01*
%TO.N,GNDREF*%
X31590000Y-25730000D02*
X31300000Y-25440000D01*
D15*
X47120000Y-38420000D02*
X48410000Y-39710000D01*
D14*
X33250000Y-39290000D02*
X33850000Y-39890000D01*
D15*
X42200000Y-38420000D02*
X47120000Y-38420000D01*
D14*
X33850000Y-39890000D02*
X33850000Y-43620000D01*
X33860000Y-25730000D02*
X31590000Y-25730000D01*
%TO.N,Net-(D1-A)*%
X39390000Y-26840000D02*
X39022557Y-26840000D01*
X36690000Y-29172557D02*
X30397443Y-29172557D01*
X30397443Y-29172557D02*
X29230000Y-30340000D01*
X39022557Y-26840000D02*
X36690000Y-29172557D01*
%TO.N,Net-(D2-A)*%
X39367840Y-30381000D02*
X32759000Y-30381000D01*
X32759000Y-30381000D02*
X31360000Y-31780000D01*
%TO.N,Net-(D2-K)*%
X37121500Y-29591000D02*
X37332500Y-29380000D01*
X32699057Y-29591000D02*
X37121500Y-29591000D01*
X30180000Y-32800000D02*
X30180000Y-32110057D01*
X30180000Y-32110057D02*
X32699057Y-29591000D01*
%TO.N,Net-(D4-A)*%
X32930000Y-31490000D02*
X31620000Y-32800000D01*
X35220000Y-31490000D02*
X32930000Y-31490000D01*
%TO.N,Net-(R4-Pad1)*%
X33588386Y-28771557D02*
X28828443Y-28771557D01*
X28828443Y-28771557D02*
X28700000Y-28900000D01*
X36459943Y-25900000D02*
X33588386Y-28771557D01*
X41860000Y-25900000D02*
X36459943Y-25900000D01*
%TO.N,Net-(J1-CC2)*%
X29878926Y-21969000D02*
X34179000Y-21969000D01*
X29439000Y-22408926D02*
X29878926Y-21969000D01*
X29439000Y-24709000D02*
X29439000Y-22408926D01*
X33490000Y-28020000D02*
X32750000Y-28020000D01*
X34179000Y-21969000D02*
X34230000Y-22020000D01*
X32750000Y-28020000D02*
X29439000Y-24709000D01*
%TO.N,Net-(J2-CC1)*%
X23990000Y-25440000D02*
X21400000Y-28030000D01*
X21400000Y-28030000D02*
X18730000Y-28030000D01*
%TO.N,Net-(J2-CC2)*%
X20940000Y-25340000D02*
X21870000Y-26270000D01*
X19290000Y-25340000D02*
X20940000Y-25340000D01*
%TO.N,unconnected-(J1-SHIELD-PadS1)*%
X38840000Y-20090000D02*
X38840000Y-23470000D01*
%TO.N,unconnected-(J2-SHIELD-PadS1)*%
X19100000Y-20130000D02*
X19100000Y-23510000D01*
%TD*%
%TA.AperFunction,Conductor*%
%TO.N,GNDREF*%
G36*
X18633064Y-18690185D02*
G01*
X18678819Y-18742989D01*
X18688763Y-18812147D01*
X18659738Y-18875703D01*
X18634916Y-18897602D01*
X18494092Y-18991697D01*
X18494088Y-18991700D01*
X18361700Y-19124088D01*
X18361697Y-19124092D01*
X18257681Y-19279762D01*
X18257676Y-19279771D01*
X18186027Y-19452748D01*
X18186025Y-19452756D01*
X18149500Y-19636379D01*
X18149500Y-20623620D01*
X18186025Y-20807243D01*
X18186027Y-20807251D01*
X18257676Y-20980228D01*
X18257681Y-20980237D01*
X18361696Y-21135906D01*
X18361697Y-21135907D01*
X18361698Y-21135908D01*
X18463182Y-21237392D01*
X18496666Y-21298713D01*
X18499500Y-21325072D01*
X18499500Y-21964927D01*
X18479815Y-22031966D01*
X18463181Y-22052608D01*
X18361700Y-22154088D01*
X18361697Y-22154092D01*
X18257681Y-22309762D01*
X18257676Y-22309771D01*
X18186027Y-22482748D01*
X18186025Y-22482756D01*
X18149500Y-22666379D01*
X18149500Y-24353620D01*
X18186025Y-24537243D01*
X18186027Y-24537251D01*
X18257676Y-24710228D01*
X18257681Y-24710237D01*
X18361697Y-24865907D01*
X18361700Y-24865911D01*
X18487005Y-24991216D01*
X18520490Y-25052539D01*
X18520941Y-25103088D01*
X18489500Y-25261153D01*
X18489500Y-25418846D01*
X18520261Y-25573489D01*
X18520264Y-25573501D01*
X18580602Y-25719172D01*
X18580609Y-25719185D01*
X18668210Y-25850288D01*
X18668213Y-25850292D01*
X18779707Y-25961786D01*
X18779711Y-25961789D01*
X18910814Y-26049390D01*
X18910827Y-26049397D01*
X19056498Y-26109735D01*
X19056503Y-26109737D01*
X19175912Y-26133489D01*
X19211153Y-26140499D01*
X19211156Y-26140500D01*
X19211158Y-26140500D01*
X19368844Y-26140500D01*
X19368845Y-26140499D01*
X19523497Y-26109737D01*
X19669179Y-26049394D01*
X19669185Y-26049390D01*
X19800875Y-25961398D01*
X19867553Y-25940520D01*
X19869766Y-25940500D01*
X20639903Y-25940500D01*
X20706942Y-25960185D01*
X20727584Y-25976819D01*
X21035425Y-26284660D01*
X21068910Y-26345983D01*
X21069361Y-26348149D01*
X21100261Y-26503491D01*
X21100264Y-26503501D01*
X21160602Y-26649172D01*
X21160609Y-26649185D01*
X21248210Y-26780288D01*
X21248213Y-26780292D01*
X21359708Y-26891787D01*
X21359711Y-26891789D01*
X21431460Y-26939730D01*
X21476265Y-26993342D01*
X21484972Y-27062666D01*
X21454818Y-27125694D01*
X21450251Y-27130513D01*
X21187582Y-27393182D01*
X21126262Y-27426666D01*
X21099903Y-27429500D01*
X19309766Y-27429500D01*
X19242727Y-27409815D01*
X19240875Y-27408602D01*
X19109185Y-27320609D01*
X19109172Y-27320602D01*
X18963501Y-27260264D01*
X18963489Y-27260261D01*
X18808845Y-27229500D01*
X18808842Y-27229500D01*
X18651158Y-27229500D01*
X18651155Y-27229500D01*
X18496510Y-27260261D01*
X18496498Y-27260264D01*
X18350827Y-27320602D01*
X18350814Y-27320609D01*
X18219711Y-27408210D01*
X18219707Y-27408213D01*
X18108213Y-27519707D01*
X18108210Y-27519711D01*
X18020609Y-27650814D01*
X18020602Y-27650827D01*
X17960264Y-27796498D01*
X17960261Y-27796510D01*
X17929500Y-27951153D01*
X17929500Y-28108846D01*
X17960261Y-28263489D01*
X17960264Y-28263501D01*
X18020602Y-28409172D01*
X18020609Y-28409185D01*
X18108210Y-28540288D01*
X18108213Y-28540292D01*
X18219707Y-28651786D01*
X18219711Y-28651789D01*
X18350814Y-28739390D01*
X18350827Y-28739397D01*
X18496498Y-28799735D01*
X18496503Y-28799737D01*
X18651153Y-28830499D01*
X18651156Y-28830500D01*
X18651158Y-28830500D01*
X18808844Y-28830500D01*
X18808845Y-28830499D01*
X18963497Y-28799737D01*
X19109179Y-28739394D01*
X19122508Y-28730488D01*
X19240875Y-28651398D01*
X19307553Y-28630520D01*
X19309766Y-28630500D01*
X21313331Y-28630500D01*
X21313347Y-28630501D01*
X21320943Y-28630501D01*
X21479054Y-28630501D01*
X21479057Y-28630501D01*
X21631785Y-28589577D01*
X21681904Y-28560639D01*
X21768716Y-28510520D01*
X21880520Y-28398716D01*
X21880520Y-28398714D01*
X21890728Y-28388507D01*
X21890729Y-28388504D01*
X24004662Y-26274572D01*
X24065983Y-26241089D01*
X24068150Y-26240638D01*
X24126085Y-26229113D01*
X24223497Y-26209737D01*
X24369179Y-26149394D01*
X24500289Y-26061789D01*
X24611789Y-25950289D01*
X24699394Y-25819179D01*
X24759737Y-25673497D01*
X24790500Y-25518842D01*
X24790500Y-25440924D01*
X24797190Y-25418139D01*
X24799516Y-25394505D01*
X24806853Y-25385229D01*
X24810185Y-25373885D01*
X24828128Y-25358336D01*
X24842865Y-25339709D01*
X24856287Y-25333937D01*
X24862989Y-25328130D01*
X24874283Y-25323627D01*
X24882146Y-25320930D01*
X24948082Y-25307816D01*
X25081125Y-25252707D01*
X25084783Y-25251453D01*
X25115975Y-25250057D01*
X25147016Y-25246720D01*
X25152774Y-25248410D01*
X25154582Y-25248330D01*
X25156708Y-25249566D01*
X25172450Y-25254188D01*
X25301918Y-25307816D01*
X25444500Y-25336177D01*
X25466228Y-25340499D01*
X25466232Y-25340500D01*
X25466233Y-25340500D01*
X25633768Y-25340500D01*
X25633769Y-25340499D01*
X25798082Y-25307816D01*
X25928203Y-25253917D01*
X25997667Y-25246449D01*
X26023105Y-25253918D01*
X26152063Y-25307334D01*
X26152071Y-25307336D01*
X26316277Y-25339999D01*
X26316280Y-25340000D01*
X26483720Y-25340000D01*
X26483722Y-25339999D01*
X26647928Y-25307336D01*
X26647936Y-25307334D01*
X26800561Y-25244114D01*
X26402523Y-24846077D01*
X26369038Y-24784754D01*
X26368587Y-24734205D01*
X26377380Y-24690000D01*
X26439782Y-24690000D01*
X26513291Y-24659552D01*
X26569552Y-24603291D01*
X26600000Y-24529782D01*
X26600000Y-24450218D01*
X26569552Y-24376709D01*
X26513291Y-24320448D01*
X26439782Y-24290000D01*
X26377380Y-24290000D01*
X26368587Y-24245794D01*
X26374814Y-24176204D01*
X26402523Y-24133923D01*
X26587819Y-23948628D01*
X26649142Y-23915143D01*
X26718834Y-23920127D01*
X26774767Y-23961999D01*
X26799184Y-24027463D01*
X26799500Y-24036309D01*
X26799500Y-24353619D01*
X26801574Y-24364047D01*
X26795344Y-24433638D01*
X26767638Y-24475914D01*
X26753553Y-24489999D01*
X26843492Y-24579938D01*
X26870372Y-24620167D01*
X26907676Y-24710227D01*
X26907681Y-24710237D01*
X27011697Y-24865907D01*
X27011700Y-24865911D01*
X27144088Y-24998299D01*
X27144092Y-24998302D01*
X27299762Y-25102318D01*
X27299771Y-25102323D01*
X27338956Y-25118554D01*
X27472749Y-25173973D01*
X27619986Y-25203260D01*
X27656379Y-25210499D01*
X27656383Y-25210500D01*
X27656384Y-25210500D01*
X27843617Y-25210500D01*
X27843618Y-25210499D01*
X28027251Y-25173973D01*
X28200231Y-25102322D01*
X28355908Y-24998302D01*
X28488302Y-24865908D01*
X28592322Y-24710231D01*
X28599937Y-24691845D01*
X28643778Y-24637442D01*
X28710072Y-24615376D01*
X28777771Y-24632654D01*
X28825382Y-24683791D01*
X28838499Y-24739297D01*
X28838499Y-24788054D01*
X28838498Y-24788054D01*
X28848641Y-24825907D01*
X28879423Y-24940785D01*
X28879424Y-24940786D01*
X28890988Y-24960818D01*
X28890991Y-24960821D01*
X28958477Y-25077712D01*
X28958481Y-25077717D01*
X29077349Y-25196585D01*
X29077355Y-25196590D01*
X31840141Y-27959376D01*
X31873626Y-28020699D01*
X31868642Y-28090391D01*
X31826770Y-28146324D01*
X31761306Y-28170741D01*
X31752460Y-28171057D01*
X29056648Y-28171057D01*
X29009196Y-28161618D01*
X28933501Y-28130264D01*
X28933489Y-28130261D01*
X28778845Y-28099500D01*
X28778842Y-28099500D01*
X28621158Y-28099500D01*
X28621155Y-28099500D01*
X28466510Y-28130261D01*
X28466498Y-28130264D01*
X28320827Y-28190602D01*
X28320814Y-28190609D01*
X28189711Y-28278210D01*
X28189707Y-28278213D01*
X28078213Y-28389707D01*
X28078210Y-28389711D01*
X27990609Y-28520814D01*
X27990602Y-28520827D01*
X27930264Y-28666498D01*
X27930261Y-28666510D01*
X27899500Y-28821153D01*
X27899500Y-28978846D01*
X27930261Y-29133489D01*
X27930264Y-29133501D01*
X27990602Y-29279172D01*
X27990609Y-29279185D01*
X28078210Y-29410288D01*
X28078213Y-29410292D01*
X28189707Y-29521786D01*
X28189711Y-29521789D01*
X28320814Y-29609390D01*
X28320827Y-29609397D01*
X28466498Y-29669735D01*
X28466503Y-29669737D01*
X28503923Y-29677180D01*
X28565833Y-29709563D01*
X28600408Y-29770278D01*
X28596669Y-29840048D01*
X28582835Y-29867687D01*
X28520608Y-29960816D01*
X28520602Y-29960827D01*
X28460264Y-30106498D01*
X28460261Y-30106510D01*
X28429500Y-30261153D01*
X28429500Y-30418846D01*
X28460261Y-30573489D01*
X28460264Y-30573501D01*
X28520602Y-30719172D01*
X28520609Y-30719185D01*
X28608210Y-30850288D01*
X28608213Y-30850292D01*
X28719707Y-30961786D01*
X28719711Y-30961789D01*
X28850814Y-31049390D01*
X28850827Y-31049397D01*
X28996498Y-31109735D01*
X28996503Y-31109737D01*
X29151153Y-31140499D01*
X29151156Y-31140500D01*
X29151158Y-31140500D01*
X29308844Y-31140500D01*
X29308845Y-31140499D01*
X29463497Y-31109737D01*
X29609179Y-31049394D01*
X29740289Y-30961789D01*
X29851789Y-30850289D01*
X29939394Y-30719179D01*
X29999737Y-30573497D01*
X30022345Y-30459842D01*
X30030638Y-30418150D01*
X30063023Y-30356239D01*
X30064515Y-30354719D01*
X30609860Y-29809376D01*
X30671183Y-29775891D01*
X30697541Y-29773057D01*
X31368402Y-29773057D01*
X31435441Y-29792742D01*
X31481196Y-29845546D01*
X31491140Y-29914704D01*
X31462115Y-29978260D01*
X31456083Y-29984738D01*
X29699481Y-31741339D01*
X29699479Y-31741341D01*
X29676435Y-31781255D01*
X29666695Y-31798127D01*
X29620423Y-31878272D01*
X29579499Y-32031000D01*
X29579499Y-32031002D01*
X29579499Y-32199103D01*
X29579500Y-32199116D01*
X29579500Y-32220234D01*
X29559815Y-32287273D01*
X29558602Y-32289125D01*
X29470609Y-32420814D01*
X29470602Y-32420827D01*
X29410264Y-32566498D01*
X29410261Y-32566510D01*
X29379500Y-32721153D01*
X29379500Y-32878846D01*
X29410261Y-33033489D01*
X29410264Y-33033501D01*
X29470602Y-33179172D01*
X29470609Y-33179185D01*
X29558210Y-33310288D01*
X29558213Y-33310292D01*
X29669707Y-33421786D01*
X29669711Y-33421789D01*
X29800814Y-33509390D01*
X29800827Y-33509397D01*
X29946498Y-33569735D01*
X29946503Y-33569737D01*
X30101153Y-33600499D01*
X30101156Y-33600500D01*
X30101158Y-33600500D01*
X30258844Y-33600500D01*
X30258845Y-33600499D01*
X30413497Y-33569737D01*
X30559179Y-33509394D01*
X30690289Y-33421789D01*
X30801789Y-33310289D01*
X30801793Y-33310281D01*
X30804144Y-33307419D01*
X30805762Y-33306316D01*
X30806097Y-33305982D01*
X30806160Y-33306045D01*
X30861889Y-33268083D01*
X30931733Y-33266210D01*
X30991503Y-33302396D01*
X30995856Y-33307419D01*
X30998216Y-33310295D01*
X31109707Y-33421786D01*
X31109711Y-33421789D01*
X31240814Y-33509390D01*
X31240827Y-33509397D01*
X31386498Y-33569735D01*
X31386503Y-33569737D01*
X31541153Y-33600499D01*
X31541156Y-33600500D01*
X31541158Y-33600500D01*
X31698844Y-33600500D01*
X31698845Y-33600499D01*
X31853497Y-33569737D01*
X31999179Y-33509394D01*
X32130289Y-33421789D01*
X32241789Y-33310289D01*
X32329394Y-33179179D01*
X32389737Y-33033497D01*
X32409113Y-32936085D01*
X32420638Y-32878150D01*
X32453023Y-32816239D01*
X32454516Y-32814718D01*
X33142417Y-32126819D01*
X33203740Y-32093334D01*
X33230098Y-32090500D01*
X34640234Y-32090500D01*
X34707273Y-32110185D01*
X34709125Y-32111398D01*
X34840814Y-32199390D01*
X34840827Y-32199397D01*
X34986498Y-32259735D01*
X34986503Y-32259737D01*
X35141153Y-32290499D01*
X35141156Y-32290500D01*
X35141158Y-32290500D01*
X35298844Y-32290500D01*
X35298845Y-32290499D01*
X35453497Y-32259737D01*
X35599179Y-32199394D01*
X35730289Y-32111789D01*
X35841789Y-32000289D01*
X35929394Y-31869179D01*
X35989737Y-31723497D01*
X36020500Y-31568842D01*
X36020500Y-31411158D01*
X36020500Y-31411155D01*
X36020499Y-31411153D01*
X35989738Y-31256510D01*
X35989737Y-31256503D01*
X35989735Y-31256498D01*
X35946846Y-31152952D01*
X35939377Y-31083482D01*
X35970653Y-31021003D01*
X36030742Y-30985352D01*
X36061407Y-30981500D01*
X38788074Y-30981500D01*
X38855113Y-31001185D01*
X38856965Y-31002398D01*
X38988654Y-31090390D01*
X38988667Y-31090397D01*
X39134338Y-31150735D01*
X39134343Y-31150737D01*
X39288993Y-31181499D01*
X39288996Y-31181500D01*
X39288998Y-31181500D01*
X39446684Y-31181500D01*
X39446685Y-31181499D01*
X39601337Y-31150737D01*
X39747019Y-31090394D01*
X39878129Y-31002789D01*
X39989629Y-30891289D01*
X40077234Y-30760179D01*
X40137577Y-30614497D01*
X40168340Y-30459842D01*
X40168340Y-30302158D01*
X40168340Y-30302155D01*
X40168339Y-30302153D01*
X40137577Y-30147503D01*
X40120597Y-30106510D01*
X40077237Y-30001827D01*
X40077230Y-30001814D01*
X39989629Y-29870711D01*
X39989626Y-29870707D01*
X39878132Y-29759213D01*
X39878128Y-29759210D01*
X39747025Y-29671609D01*
X39747012Y-29671602D01*
X39601341Y-29611264D01*
X39601329Y-29611261D01*
X39446685Y-29580500D01*
X39446682Y-29580500D01*
X39288998Y-29580500D01*
X39288995Y-29580500D01*
X39134350Y-29611261D01*
X39134338Y-29611264D01*
X38988667Y-29671602D01*
X38988654Y-29671609D01*
X38856965Y-29759602D01*
X38790287Y-29780480D01*
X38788074Y-29780500D01*
X38218641Y-29780500D01*
X38151602Y-29760815D01*
X38105847Y-29708011D01*
X38095903Y-29638853D01*
X38101200Y-29619545D01*
X38100469Y-29619324D01*
X38102231Y-29613509D01*
X38102237Y-29613497D01*
X38133000Y-29458842D01*
X38133000Y-29301158D01*
X38133000Y-29301155D01*
X38132999Y-29301153D01*
X38102238Y-29146510D01*
X38102237Y-29146503D01*
X38102235Y-29146498D01*
X38041897Y-29000827D01*
X38041890Y-29000814D01*
X37965882Y-28887060D01*
X37945004Y-28820382D01*
X37963489Y-28753002D01*
X37981299Y-28730492D01*
X39064222Y-27647568D01*
X39125543Y-27614085D01*
X39176093Y-27613634D01*
X39311155Y-27640500D01*
X39311158Y-27640500D01*
X39468844Y-27640500D01*
X39468845Y-27640499D01*
X39623497Y-27609737D01*
X39769179Y-27549394D01*
X39900289Y-27461789D01*
X40011789Y-27350289D01*
X40099394Y-27219179D01*
X40159737Y-27073497D01*
X40190500Y-26918842D01*
X40190500Y-26761158D01*
X40190500Y-26761155D01*
X40168129Y-26648692D01*
X40174356Y-26579100D01*
X40217219Y-26523923D01*
X40283108Y-26500678D01*
X40289746Y-26500500D01*
X41280234Y-26500500D01*
X41347273Y-26520185D01*
X41349125Y-26521398D01*
X41480814Y-26609390D01*
X41480827Y-26609397D01*
X41626498Y-26669735D01*
X41626503Y-26669737D01*
X41781153Y-26700499D01*
X41781156Y-26700500D01*
X41781158Y-26700500D01*
X41938844Y-26700500D01*
X41938845Y-26700499D01*
X42093497Y-26669737D01*
X42239179Y-26609394D01*
X42370289Y-26521789D01*
X42481789Y-26410289D01*
X42569394Y-26279179D01*
X42571302Y-26274574D01*
X42598157Y-26209738D01*
X42629737Y-26133497D01*
X42660500Y-25978842D01*
X42660500Y-25821158D01*
X42660500Y-25821155D01*
X42660499Y-25821153D01*
X42640215Y-25719179D01*
X42629737Y-25666503D01*
X42591210Y-25573489D01*
X42569397Y-25520827D01*
X42569390Y-25520814D01*
X42481789Y-25389711D01*
X42481786Y-25389707D01*
X42370292Y-25278213D01*
X42370288Y-25278210D01*
X42239185Y-25190609D01*
X42239172Y-25190602D01*
X42093501Y-25130264D01*
X42093489Y-25130261D01*
X41938845Y-25099500D01*
X41938842Y-25099500D01*
X41781158Y-25099500D01*
X41781155Y-25099500D01*
X41626510Y-25130261D01*
X41626498Y-25130264D01*
X41480827Y-25190602D01*
X41480814Y-25190609D01*
X41349125Y-25278602D01*
X41282447Y-25299480D01*
X41280234Y-25299500D01*
X39341023Y-25299500D01*
X39273984Y-25279815D01*
X39228229Y-25227011D01*
X39218285Y-25157853D01*
X39247310Y-25094297D01*
X39285643Y-25066656D01*
X39284861Y-25065192D01*
X39290224Y-25062324D01*
X39290231Y-25062322D01*
X39445908Y-24958302D01*
X39578302Y-24825908D01*
X39682322Y-24670231D01*
X39753973Y-24497251D01*
X39790500Y-24313616D01*
X39790500Y-23990943D01*
X50739500Y-23990943D01*
X50739500Y-24149057D01*
X50777266Y-24290000D01*
X50780423Y-24301783D01*
X50780426Y-24301790D01*
X50859475Y-24438709D01*
X50859479Y-24438714D01*
X50859480Y-24438716D01*
X50971284Y-24550520D01*
X50971286Y-24550521D01*
X50971290Y-24550524D01*
X51062687Y-24603291D01*
X51108216Y-24629577D01*
X51260943Y-24670500D01*
X51260945Y-24670500D01*
X51449055Y-24670500D01*
X51449057Y-24670500D01*
X51601784Y-24629577D01*
X51738716Y-24550520D01*
X51850520Y-24438716D01*
X51929577Y-24301784D01*
X51970500Y-24149057D01*
X51970500Y-23990943D01*
X51929577Y-23838216D01*
X51907875Y-23800626D01*
X51850524Y-23701290D01*
X51850518Y-23701282D01*
X51738717Y-23589481D01*
X51738709Y-23589475D01*
X51601790Y-23510426D01*
X51601786Y-23510424D01*
X51601784Y-23510423D01*
X51449057Y-23469500D01*
X51260943Y-23469500D01*
X51108216Y-23510423D01*
X51108209Y-23510426D01*
X50971290Y-23589475D01*
X50971282Y-23589481D01*
X50859481Y-23701282D01*
X50859475Y-23701290D01*
X50780426Y-23838209D01*
X50780423Y-23838216D01*
X50739500Y-23990943D01*
X39790500Y-23990943D01*
X39790500Y-22626384D01*
X39753973Y-22442749D01*
X39687465Y-22282185D01*
X39682323Y-22269771D01*
X39682318Y-22269762D01*
X39578302Y-22114092D01*
X39578299Y-22114088D01*
X39476819Y-22012608D01*
X39443334Y-21951285D01*
X39440500Y-21924927D01*
X39440500Y-21285072D01*
X39460185Y-21218033D01*
X39476814Y-21197395D01*
X39578302Y-21095908D01*
X39682322Y-20940231D01*
X39753973Y-20767251D01*
X39790500Y-20583616D01*
X39790500Y-19596384D01*
X39753973Y-19412749D01*
X39682322Y-19239769D01*
X39682321Y-19239768D01*
X39682318Y-19239762D01*
X39578302Y-19084092D01*
X39578299Y-19084088D01*
X39445911Y-18951700D01*
X39445907Y-18951697D01*
X39364948Y-18897602D01*
X39320143Y-18843990D01*
X39311436Y-18774665D01*
X39341590Y-18711638D01*
X39401033Y-18674918D01*
X39433839Y-18670500D01*
X62590500Y-18670500D01*
X62657539Y-18690185D01*
X62703294Y-18742989D01*
X62714500Y-18794500D01*
X62714500Y-44555500D01*
X62694815Y-44622539D01*
X62642011Y-44668294D01*
X62590500Y-44679500D01*
X15649500Y-44679500D01*
X15582461Y-44659815D01*
X15536706Y-44607011D01*
X15525500Y-44555500D01*
X15525500Y-18794500D01*
X15545185Y-18727461D01*
X15597989Y-18681706D01*
X15649500Y-18670500D01*
X18566025Y-18670500D01*
X18633064Y-18690185D01*
G37*
%TD.AperFunction*%
%TA.AperFunction,Conductor*%
G36*
X31105235Y-25182379D02*
G01*
X31114699Y-25188109D01*
X31137374Y-25203260D01*
X31292063Y-25267334D01*
X31292071Y-25267336D01*
X31456277Y-25299999D01*
X31456280Y-25300000D01*
X31623720Y-25300000D01*
X31623722Y-25299999D01*
X31787928Y-25267336D01*
X31787932Y-25267335D01*
X31916892Y-25213918D01*
X31986362Y-25206449D01*
X32011795Y-25213916D01*
X32141918Y-25267816D01*
X32287174Y-25296709D01*
X32306228Y-25300499D01*
X32306232Y-25300500D01*
X32306233Y-25300500D01*
X32473768Y-25300500D01*
X32473769Y-25300499D01*
X32638082Y-25267816D01*
X32767548Y-25214188D01*
X32837016Y-25206720D01*
X32862450Y-25214188D01*
X32991918Y-25267816D01*
X33137174Y-25296709D01*
X33156228Y-25300499D01*
X33156232Y-25300500D01*
X33156233Y-25300500D01*
X33323768Y-25300500D01*
X33323769Y-25300499D01*
X33488082Y-25267816D01*
X33617548Y-25214188D01*
X33687016Y-25206720D01*
X33712450Y-25214188D01*
X33841918Y-25267816D01*
X33987174Y-25296709D01*
X34006228Y-25300499D01*
X34006232Y-25300500D01*
X34006233Y-25300500D01*
X34173768Y-25300500D01*
X34173769Y-25300499D01*
X34338082Y-25267816D01*
X34467548Y-25214188D01*
X34537016Y-25206720D01*
X34562450Y-25214188D01*
X34691918Y-25267816D01*
X34837174Y-25296709D01*
X34856228Y-25300499D01*
X34856232Y-25300500D01*
X34856233Y-25300500D01*
X35023768Y-25300500D01*
X35023769Y-25300499D01*
X35188082Y-25267816D01*
X35317548Y-25214188D01*
X35387016Y-25206720D01*
X35412450Y-25214188D01*
X35541918Y-25267816D01*
X35687174Y-25296709D01*
X35706228Y-25300499D01*
X35706232Y-25300500D01*
X35706233Y-25300500D01*
X35873768Y-25300500D01*
X35873768Y-25300499D01*
X35892826Y-25296709D01*
X35926533Y-25299725D01*
X35960349Y-25302143D01*
X35961271Y-25302833D01*
X35962417Y-25302936D01*
X35989162Y-25323712D01*
X36016284Y-25344014D01*
X36016686Y-25345091D01*
X36017595Y-25345798D01*
X36028858Y-25377725D01*
X36040702Y-25409477D01*
X36040457Y-25410602D01*
X36040840Y-25411688D01*
X36033048Y-25444664D01*
X36025851Y-25477751D01*
X36024943Y-25478963D01*
X36024773Y-25479685D01*
X36004701Y-25506006D01*
X35979423Y-25531284D01*
X34139511Y-27371196D01*
X34078188Y-27404681D01*
X34008496Y-27399697D01*
X33982939Y-27386617D01*
X33869185Y-27310609D01*
X33869172Y-27310602D01*
X33723501Y-27250264D01*
X33723489Y-27250261D01*
X33568845Y-27219500D01*
X33568842Y-27219500D01*
X33411158Y-27219500D01*
X33411155Y-27219500D01*
X33256510Y-27250261D01*
X33256498Y-27250264D01*
X33110827Y-27310602D01*
X33110811Y-27310611D01*
X33062964Y-27342581D01*
X32996287Y-27363458D01*
X32928907Y-27344973D01*
X32906394Y-27327159D01*
X30958127Y-25378892D01*
X30924642Y-25317569D01*
X30929626Y-25247877D01*
X30971498Y-25191944D01*
X31036962Y-25167527D01*
X31105235Y-25182379D01*
G37*
%TD.AperFunction*%
%TA.AperFunction,Conductor*%
G36*
X37808834Y-23880127D02*
G01*
X37864767Y-23921999D01*
X37889184Y-23987463D01*
X37889500Y-23996309D01*
X37889500Y-24313616D01*
X37892070Y-24326540D01*
X37892470Y-24329096D01*
X37888239Y-24361293D01*
X37885344Y-24393638D01*
X37883650Y-24396222D01*
X37883368Y-24398371D01*
X37878360Y-24404294D01*
X37857638Y-24435914D01*
X37843553Y-24449999D01*
X37933492Y-24539938D01*
X37960372Y-24580167D01*
X37997676Y-24670227D01*
X37997681Y-24670237D01*
X38101697Y-24825907D01*
X38101700Y-24825911D01*
X38234088Y-24958299D01*
X38234092Y-24958302D01*
X38389762Y-25062318D01*
X38395139Y-25065192D01*
X38394105Y-25067126D01*
X38440830Y-25104775D01*
X38462898Y-25171068D01*
X38445622Y-25238768D01*
X38394487Y-25286381D01*
X38338977Y-25299500D01*
X38022682Y-25299500D01*
X37955643Y-25279815D01*
X37909888Y-25227011D01*
X37909288Y-25222841D01*
X37492523Y-24806077D01*
X37459038Y-24744754D01*
X37458587Y-24694205D01*
X37459056Y-24691846D01*
X37467380Y-24650000D01*
X37529782Y-24650000D01*
X37603291Y-24619552D01*
X37659552Y-24563291D01*
X37690000Y-24489782D01*
X37690000Y-24410218D01*
X37659552Y-24336709D01*
X37603291Y-24280448D01*
X37529782Y-24250000D01*
X37467380Y-24250000D01*
X37458587Y-24205794D01*
X37464814Y-24136204D01*
X37492523Y-24093923D01*
X37677819Y-23908628D01*
X37739142Y-23875143D01*
X37808834Y-23880127D01*
G37*
%TD.AperFunction*%
%TA.AperFunction,Conductor*%
G36*
X20255703Y-23942596D02*
G01*
X20262181Y-23948628D01*
X20447476Y-24133922D01*
X20480961Y-24195245D01*
X20481412Y-24245794D01*
X20472619Y-24290000D01*
X20410218Y-24290000D01*
X20336709Y-24320448D01*
X20280448Y-24376709D01*
X20250000Y-24450218D01*
X20250000Y-24529782D01*
X20280448Y-24603291D01*
X20288979Y-24611822D01*
X20229889Y-24607597D01*
X20185542Y-24579096D01*
X20082362Y-24475916D01*
X20048877Y-24414593D01*
X20048426Y-24364041D01*
X20050500Y-24353615D01*
X20050500Y-24036309D01*
X20070185Y-23969270D01*
X20122989Y-23923515D01*
X20192147Y-23913571D01*
X20255703Y-23942596D01*
G37*
%TD.AperFunction*%
%TA.AperFunction,Conductor*%
G36*
X31345703Y-23902596D02*
G01*
X31352181Y-23908628D01*
X31537476Y-24093922D01*
X31570961Y-24155245D01*
X31571412Y-24205794D01*
X31562619Y-24250000D01*
X31500218Y-24250000D01*
X31426709Y-24280448D01*
X31370448Y-24336709D01*
X31340000Y-24410218D01*
X31340000Y-24489782D01*
X31370448Y-24563291D01*
X31378979Y-24571822D01*
X31319889Y-24567597D01*
X31275542Y-24539096D01*
X31172362Y-24435916D01*
X31138877Y-24374593D01*
X31138426Y-24324041D01*
X31140500Y-24313615D01*
X31140500Y-23996309D01*
X31160185Y-23929270D01*
X31212989Y-23883515D01*
X31282147Y-23873571D01*
X31345703Y-23902596D01*
G37*
%TD.AperFunction*%
%TA.AperFunction,Conductor*%
G36*
X26620111Y-23022403D02*
G01*
X26664458Y-23050904D01*
X26763181Y-23149627D01*
X26796666Y-23210950D01*
X26799500Y-23237308D01*
X26799500Y-23593691D01*
X26779815Y-23660730D01*
X26727011Y-23706485D01*
X26657853Y-23716429D01*
X26594297Y-23687404D01*
X26587819Y-23681372D01*
X26402523Y-23496076D01*
X26399922Y-23491313D01*
X26395398Y-23488318D01*
X26383356Y-23460975D01*
X26369038Y-23434753D01*
X26368843Y-23428020D01*
X26367238Y-23424375D01*
X26368043Y-23400380D01*
X26367717Y-23389084D01*
X26368100Y-23386652D01*
X26377380Y-23340000D01*
X26439782Y-23340000D01*
X26513291Y-23309552D01*
X26569552Y-23253291D01*
X26600000Y-23179782D01*
X26600000Y-23100218D01*
X26569552Y-23026709D01*
X26561020Y-23018177D01*
X26620111Y-23022403D01*
G37*
%TD.AperFunction*%
%TA.AperFunction,Conductor*%
G36*
X20286876Y-23020280D02*
G01*
X20280448Y-23026709D01*
X20250000Y-23100218D01*
X20250000Y-23179782D01*
X20280448Y-23253291D01*
X20336709Y-23309552D01*
X20410218Y-23340000D01*
X20472620Y-23340000D01*
X20481894Y-23386628D01*
X20482282Y-23389084D01*
X20478086Y-23421368D01*
X20475185Y-23453796D01*
X20473608Y-23455824D01*
X20473278Y-23458371D01*
X20447476Y-23496076D01*
X20262181Y-23681372D01*
X20200858Y-23714857D01*
X20131167Y-23709873D01*
X20075233Y-23668002D01*
X20050816Y-23602537D01*
X20050500Y-23593691D01*
X20050500Y-23237308D01*
X20070185Y-23170269D01*
X20086819Y-23149627D01*
X20185542Y-23050904D01*
X20246865Y-23017419D01*
X20286876Y-23020280D01*
G37*
%TD.AperFunction*%
%TA.AperFunction,Conductor*%
G36*
X37710111Y-22982403D02*
G01*
X37754458Y-23010904D01*
X37853181Y-23109627D01*
X37886666Y-23170950D01*
X37889500Y-23197308D01*
X37889500Y-23553691D01*
X37869815Y-23620730D01*
X37817011Y-23666485D01*
X37747853Y-23676429D01*
X37684297Y-23647404D01*
X37677819Y-23641372D01*
X37492523Y-23456076D01*
X37489922Y-23451313D01*
X37485398Y-23448318D01*
X37473356Y-23420975D01*
X37459038Y-23394753D01*
X37458843Y-23388020D01*
X37457238Y-23384375D01*
X37458043Y-23360380D01*
X37457717Y-23349084D01*
X37458100Y-23346652D01*
X37467380Y-23300000D01*
X37529782Y-23300000D01*
X37603291Y-23269552D01*
X37659552Y-23213291D01*
X37690000Y-23139782D01*
X37690000Y-23060218D01*
X37659552Y-22986709D01*
X37651020Y-22978177D01*
X37710111Y-22982403D01*
G37*
%TD.AperFunction*%
%TA.AperFunction,Conductor*%
G36*
X31376876Y-22980280D02*
G01*
X31370448Y-22986709D01*
X31340000Y-23060218D01*
X31340000Y-23139782D01*
X31370448Y-23213291D01*
X31426709Y-23269552D01*
X31500218Y-23300000D01*
X31562619Y-23300000D01*
X31571412Y-23344204D01*
X31565185Y-23413796D01*
X31537476Y-23456076D01*
X31352181Y-23641372D01*
X31290858Y-23674857D01*
X31221167Y-23669873D01*
X31165233Y-23628002D01*
X31140816Y-23562537D01*
X31140500Y-23553691D01*
X31140500Y-23197308D01*
X31149144Y-23167867D01*
X31155668Y-23137881D01*
X31159422Y-23132865D01*
X31160185Y-23130269D01*
X31176819Y-23109627D01*
X31275542Y-23010904D01*
X31336865Y-22977419D01*
X31376876Y-22980280D01*
G37*
%TD.AperFunction*%
%TD*%
M02*
